<?xml version="1.0" encoding="UTF-8"?>
<!DOCTYPE svg PUBLIC "-//W3C//DTD SVG 1.1//EN" "http://www.w3.org/Graphics/SVG/1.1/DTD/svg11.dtd">
<svg xmlns="http://www.w3.org/2000/svg" version="1.1" width="60px" height="60px" style="shape-rendering:geometricPrecision; text-rendering:geometricPrecision; image-rendering:optimizeQuality; fill-rule:evenodd; clip-rule:evenodd" xmlns:xlink="http://www.w3.org/1999/xlink">
<g><path style="opacity:0.817" fill="#323232" d="M 27.5,0.5 C 45.9369,3.36106 52.1036,13.6944 46,31.5C 43.3333,34.1667 40.6667,36.8333 38,39.5C 37.502,42.4816 37.3354,45.4816 37.5,48.5C 32.1667,48.5 26.8333,48.5 21.5,48.5C 21.6646,45.4816 21.498,42.4816 21,39.5C 9.87731,31.1762 7.54397,20.8429 14,8.5C 17.6961,4.26846 22.1961,1.6018 27.5,0.5 Z M 23.5,7.5 C 32.1211,4.3788 38.6211,7.04547 43,15.5C 43.7907,19.9255 43.4573,24.2589 42,28.5C 39.3333,31.1667 36.6667,33.8333 34,36.5C 32.9207,39.0627 32.4207,41.7294 32.5,44.5C 30.5,44.5 28.5,44.5 26.5,44.5C 26.5793,41.7294 26.0793,39.0627 25,36.5C 22.3333,33.8333 19.6667,31.1667 17,28.5C 15.5427,24.2589 15.2093,19.9255 16,15.5C 16.6891,16.3567 17.5224,17.0233 18.5,17.5C 20.3231,14.1776 22.8231,11.5109 26,9.5C 26.1881,7.9387 25.3547,7.27203 23.5,7.5 Z"/></g>
<g><path style="opacity:0.726" fill="#323232" d="M 22.5,49.5 C 27.1785,49.3342 31.8452,49.5008 36.5,50C 37.8333,51.3333 37.8333,52.6667 36.5,54C 31.8333,54.6667 27.1667,54.6667 22.5,54C 21.2721,52.5098 21.2721,51.0098 22.5,49.5 Z"/></g>
<g><path style="opacity:0.797" fill="#323232" d="M 33.5,59.5 C 30.8333,59.5 28.1667,59.5 25.5,59.5C 25.5,58.1667 25.5,56.8333 25.5,55.5C 28.1667,55.5 30.8333,55.5 33.5,55.5C 33.5,56.8333 33.5,58.1667 33.5,59.5 Z"/></g>
</svg>
