<?xml version="1.0" encoding="UTF-8"?>
<!DOCTYPE svg PUBLIC "-//W3C//DTD SVG 1.1//EN" "http://www.w3.org/Graphics/SVG/1.1/DTD/svg11.dtd">
<svg xmlns="http://www.w3.org/2000/svg" version="1.1" width="60px" height="60px" style="shape-rendering:geometricPrecision; text-rendering:geometricPrecision; image-rendering:optimizeQuality; fill-rule:evenodd; clip-rule:evenodd" xmlns:xlink="http://www.w3.org/1999/xlink">
<g><path style="opacity:0.975" fill="#434a54" d="M 31.5,14.5 C 32.5,14.5 33.5,14.5 34.5,14.5C 32.8121,24.2536 30.6454,33.9202 28,43.5C 26.9887,44.3366 25.8221,44.67 24.5,44.5C 26.208,34.3358 28.5413,24.3358 31.5,14.5 Z"/></g>
<g><path style="opacity:0.843" fill="#434a52" d="M 16.5,21.5 C 18.3464,21.2222 19.6798,21.8888 20.5,23.5C 18.8333,25.5 17.1667,27.5 15.5,29.5C 17.1667,31.5 18.8333,33.5 20.5,35.5C 20.1131,36.7199 19.2798,37.3865 18,37.5C 14.6997,35.3675 11.8663,32.7008 9.5,29.5C 11.8558,26.8136 14.1891,24.147 16.5,21.5 Z"/></g>
<g><path style="opacity:0.872" fill="#444b53" d="M 39.5,21.5 C 43.6535,22.9708 46.9868,25.6374 49.5,29.5C 47.1337,32.7008 44.3003,35.3675 41,37.5C 39.7202,37.3865 38.8869,36.7199 38.5,35.5C 40.1667,33.5 41.8333,31.5 43.5,29.5C 42.1851,27.6841 40.6851,26.0175 39,24.5C 38.5304,23.4232 38.6971,22.4232 39.5,21.5 Z"/></g>
</svg>
