<?xml version="1.0" encoding="UTF-8"?>
<!DOCTYPE svg PUBLIC "-//W3C//DTD SVG 1.1//EN" "http://www.w3.org/Graphics/SVG/1.1/DTD/svg11.dtd">
<svg xmlns="http://www.w3.org/2000/svg" version="1.1" width="60px" height="60px" style="shape-rendering:geometricPrecision; text-rendering:geometricPrecision; image-rendering:optimizeQuality; fill-rule:evenodd; clip-rule:evenodd" xmlns:xlink="http://www.w3.org/1999/xlink">
<g><path style="opacity:0.658" fill="#000000" d="M 23.5,1.5 C 43.6239,0.298877 54.9572,9.63221 57.5,29.5C 54.3396,51.8135 41.6729,60.6468 19.5,56C 1.50417,46.1964 -2.99583,32.0297 6,13.5C 10.5048,7.34822 16.3381,3.34822 23.5,1.5 Z M 26.5,4.5 C 28.3602,8.35095 30.1935,8.35095 32,4.5C 44.1667,7.33333 51.6667,14.8333 54.5,27C 50.5,28.6667 50.5,30.3333 54.5,32C 51.6667,44.1667 44.1667,51.6667 32,54.5C 30.3333,50.5 28.6667,50.5 27,54.5C 14.8333,51.6667 7.33333,44.1667 4.5,32C 8.5,30.3333 8.5,28.6667 4.5,27C 7.34817,14.9863 14.6815,7.48627 26.5,4.5 Z M 24.5,34.5 C 25.3909,32.3911 26.5576,30.3911 28,28.5C 28.8333,29.3333 29.6667,30.1667 30.5,31C 28.6089,32.4424 26.6089,33.6091 24.5,34.5 Z"/></g>
<g><path style="opacity:0.734" fill="#000000" d="M 42.5,13.5 C 43.5,13.5 44.5,13.5 45.5,13.5C 45.5086,15.3084 45.0086,16.9751 44,18.5C 40.4186,23.328 37.0852,28.328 34,33.5C 27.6426,38.4246 20.8092,42.4246 13.5,45.5C 13.4914,43.6916 13.9914,42.0249 15,40.5C 18.5814,35.672 21.9148,30.672 25,25.5C 31.0117,21.637 36.845,17.637 42.5,13.5 Z M 24.5,34.5 C 26.6089,33.6091 28.6089,32.4424 30.5,31C 29.6667,30.1667 28.8333,29.3333 28,28.5C 26.5576,30.3911 25.3909,32.3911 24.5,34.5 Z"/></g>
</svg>
