<?xml version="1.0" encoding="UTF-8"?>
<!DOCTYPE svg PUBLIC "-//W3C//DTD SVG 1.1//EN" "http://www.w3.org/Graphics/SVG/1.1/DTD/svg11.dtd">
<svg xmlns="http://www.w3.org/2000/svg" version="1.1" width="60px" height="60px" style="shape-rendering:geometricPrecision; text-rendering:geometricPrecision; image-rendering:optimizeQuality; fill-rule:evenodd; clip-rule:evenodd" xmlns:xlink="http://www.w3.org/1999/xlink">
<g><path style="opacity:0.787" fill="#000000" d="M -0.5,5.5 C 19.5,5.5 39.5,5.5 59.5,5.5C 59.5,21.5 59.5,37.5 59.5,53.5C 39.5,53.5 19.5,53.5 -0.5,53.5C -0.5,37.5 -0.5,21.5 -0.5,5.5 Z M 2.5,8.5 C 20.5,8.5 38.5,8.5 56.5,8.5C 56.5,18.5 56.5,28.5 56.5,38.5C 52.1539,38.6657 47.8206,38.499 43.5,38C 39.5286,33.517 34.5286,31.517 28.5,32C 26.9825,30.3149 25.3159,28.8149 23.5,27.5C 21.4841,28.7059 19.4841,28.7059 17.5,27.5C 16.2993,25.0905 14.6326,23.0905 12.5,21.5C 9.18215,24.3172 6.01549,27.3172 3,30.5C 2.50034,23.1742 2.33368,15.8409 2.5,8.5 Z M 42.5,18.5 C 43.8333,18.5 45.1667,18.5 46.5,18.5C 46.5,19.8333 46.5,21.1667 46.5,22.5C 45.1667,22.5 43.8333,22.5 42.5,22.5C 42.5,21.1667 42.5,19.8333 42.5,18.5 Z M 11.5,26.5 C 13.5,27.976 15.1666,29.8094 16.5,32C 20.5518,30.5139 23.8851,31.5139 26.5,35C 32.5286,34.517 37.5286,36.517 41.5,41C 46.4889,41.4993 51.4889,41.6659 56.5,41.5C 56.5,44.5 56.5,47.5 56.5,50.5C 38.5,50.5 20.5,50.5 2.5,50.5C 2.33407,45.4889 2.50074,40.4889 3,35.5C 6.03787,32.6306 8.87121,29.6306 11.5,26.5 Z"/></g>
<g><path style="opacity:0.659" fill="#000000" d="M 42.5,14.5 C 48.3296,14.1605 50.8296,16.8272 50,22.5C 46.3333,27.8333 42.6667,27.8333 39,22.5C 38.2793,18.9463 39.4459,16.2796 42.5,14.5 Z M 42.5,18.5 C 42.5,19.8333 42.5,21.1667 42.5,22.5C 43.8333,22.5 45.1667,22.5 46.5,22.5C 46.5,21.1667 46.5,19.8333 46.5,18.5C 45.1667,18.5 43.8333,18.5 42.5,18.5 Z"/></g>
</svg>
