<?xml version="1.0" encoding="UTF-8"?>
<!DOCTYPE svg PUBLIC "-//W3C//DTD SVG 1.1//EN" "http://www.w3.org/Graphics/SVG/1.1/DTD/svg11.dtd">
<svg xmlns="http://www.w3.org/2000/svg" version="1.1" width="320px" height="320px" style="shape-rendering:geometricPrecision; text-rendering:geometricPrecision; image-rendering:optimizeQuality; fill-rule:evenodd; clip-rule:evenodd" xmlns:xlink="http://www.w3.org/1999/xlink">
<g><path style="opacity:0.973" fill="#282c31" d="M 110.5,15.5 C 131.836,15.3334 153.169,15.5 174.5,16C 181.334,17.4938 184.168,21.6605 183,28.5C 181.427,33.0709 178.26,35.9043 173.5,37C 149.167,37.3333 124.833,37.6667 100.5,38C 84.2075,39.066 69.5409,44.3993 56.5,54C 45.2718,66.6356 39.1052,81.4689 38,98.5C 37.3333,139.167 37.3333,179.833 38,220.5C 38.584,225.585 39.584,230.585 41,235.5C 58.92,223.457 76.7534,211.29 94.5,199C 109.465,190.449 124.465,190.449 139.5,199C 149.305,209.798 160.305,211.798 172.5,205C 190.204,188.96 208.204,173.294 226.5,158C 245.947,144.401 264.447,145.568 282,161.5C 282.333,150.5 282.667,139.5 283,128.5C 288.93,120.987 295.264,120.654 302,127.5C 302.333,128.5 302.667,129.5 303,130.5C 303.667,157.833 303.667,185.167 303,212.5C 302.474,232.075 297.474,250.409 288,267.5C 275.542,284.988 258.708,295.821 237.5,300C 225.255,302.048 212.922,303.382 200.5,304C 164.79,305.13 129.123,304.463 93.5,302C 53.7446,297.569 28.9113,276.069 19,237.5C 16.8029,224.612 15.4696,211.612 15,198.5C 13.915,162.795 14.5817,127.128 17,91.5C 19.3926,73.6389 26.0593,57.6389 37,43.5C 49.6244,30.7687 64.7911,22.602 82.5,19C 91.8894,17.2097 101.223,16.043 110.5,15.5 Z M 251.5,169.5 C 255.34,170.033 259.006,171.199 262.5,173C 268.648,178.571 274.981,183.904 281.5,189C 283.305,210.109 280.471,230.609 273,250.5C 265.035,265.083 252.869,274.25 236.5,278C 228.254,279.797 219.92,281.131 211.5,282C 176.833,282.667 142.167,282.667 107.5,282C 94.1002,280.659 81.1002,277.659 68.5,273C 61.0561,268.719 54.7228,263.219 49.5,256.5C 51.269,254.443 53.269,252.61 55.5,251C 72.672,239.915 89.672,228.581 106.5,217C 112.705,214.162 119.038,213.829 125.5,216C 129.783,218.615 133.783,221.615 137.5,225C 155.304,234.437 171.971,232.77 187.5,220C 204.871,204.293 222.538,188.96 240.5,174C 243.86,171.463 247.527,169.963 251.5,169.5 Z"/></g>
<g><path style="opacity:0.969" fill="#292d31" d="M 241.5,19.5 C 247.898,18.0526 252.731,20.0526 256,25.5C 256.5,35.4944 256.666,45.4944 256.5,55.5C 266.172,55.3335 275.839,55.5002 285.5,56C 292.494,59.1541 294.661,64.3208 292,71.5C 290.457,73.3783 288.624,74.8783 286.5,76C 276.506,76.4998 266.506,76.6665 256.5,76.5C 256.666,86.5056 256.5,96.5056 256,106.5C 251.995,113.502 246.495,115.002 239.5,111C 237.959,109.421 236.792,107.587 236,105.5C 235.5,95.8391 235.334,86.1724 235.5,76.5C 225.494,76.6665 215.494,76.4998 205.5,76C 201.198,74.0649 199.198,70.7316 199.5,66C 199.609,61.1172 201.942,57.7839 206.5,56C 216.161,55.5002 225.828,55.3335 235.5,55.5C 235.334,45.8276 235.5,36.1609 236,26.5C 236.967,23.3794 238.8,21.046 241.5,19.5 Z"/></g>
<g><path style="opacity:0.978" fill="#282c31" d="M 111.5,69.5 C 130.846,66.9226 145.013,74.2559 154,91.5C 160.77,113.779 153.936,130.279 133.5,141C 117.711,145.978 103.878,142.811 92,131.5C 80.5265,116.535 79.5265,100.868 89,84.5C 92.1667,81.3333 95.3333,78.1667 98.5,75C 102.604,72.4041 106.938,70.5707 111.5,69.5 Z M 113.5,90.5 C 126.198,88.5387 133.532,93.872 135.5,106.5C 133.045,119.402 125.379,124.235 112.5,121C 104.24,115.889 101.74,108.723 105,99.5C 107.362,95.9734 110.196,92.9734 113.5,90.5 Z"/></g>
</svg>
