<?xml version="1.0" encoding="UTF-8"?>
<!DOCTYPE svg PUBLIC "-//W3C//DTD SVG 1.1//EN" "http://www.w3.org/Graphics/SVG/1.1/DTD/svg11.dtd">
<svg xmlns="http://www.w3.org/2000/svg" version="1.1" width="60px" height="60px" style="shape-rendering:geometricPrecision; text-rendering:geometricPrecision; image-rendering:optimizeQuality; fill-rule:evenodd; clip-rule:evenodd" xmlns:xlink="http://www.w3.org/1999/xlink">
<g><path style="opacity:0.866" fill="#292929" d="M 22.5,4.5 C 45.6469,2.81308 56.1469,13.4797 54,36.5C 47.6004,52.2811 36.1004,57.7811 19.5,53C 9.44934,48.439 4.44934,40.6057 4.5,29.5C 6.5,29.5 8.5,29.5 10.5,29.5C 12.2042,44.3711 20.5375,50.5377 35.5,48C 49.0423,41.1778 52.209,31.0111 45,17.5C 39.2052,10.9667 32.0385,8.79999 23.5,11C 20.3975,12.2807 17.7308,14.1141 15.5,16.5C 16.8333,18.1667 18.1667,19.8333 19.5,21.5C 14.544,22.4941 9.54396,22.8275 4.5,22.5C 4.33398,17.1563 4.50065,11.8229 5,6.5C 6.68375,8.35132 8.51708,10.018 10.5,11.5C 14.2674,8.62154 18.2674,6.28821 22.5,4.5 Z"/></g>
<g><path style="opacity:0.801" fill="#292929" d="M 26.5,14.5 C 28.5,14.5 30.5,14.5 32.5,14.5C 30.5555,22.9835 32.8888,29.8168 39.5,35C 38,36.5 36.5,38 35,39.5C 32.3333,36.8333 29.6667,34.1667 27,31.5C 26.5006,25.8431 26.3339,20.1764 26.5,14.5 Z"/></g>
</svg>
