<?xml version="1.0" encoding="UTF-8"?>
<!DOCTYPE svg PUBLIC "-//W3C//DTD SVG 1.1//EN" "http://www.w3.org/Graphics/SVG/1.1/DTD/svg11.dtd">
<svg xmlns="http://www.w3.org/2000/svg" version="1.1" width="60px" height="60px" style="shape-rendering:geometricPrecision; text-rendering:geometricPrecision; image-rendering:optimizeQuality; fill-rule:evenodd; clip-rule:evenodd" xmlns:xlink="http://www.w3.org/1999/xlink">
<g><path style="opacity:0.961" fill="#000000" d="M 5.5,12.5 C 21.5,12.5 37.5,12.5 53.5,12.5C 53.5,14.1667 53.5,15.8333 53.5,17.5C 37.5,17.5 21.5,17.5 5.5,17.5C 5.5,15.8333 5.5,14.1667 5.5,12.5 Z"/></g>
<g><path style="opacity:0.8" fill="#000000" d="M 5.5,26.5 C 21.5,26.5 37.5,26.5 53.5,26.5C 53.5,28.5 53.5,30.5 53.5,32.5C 37.5,32.5 21.5,32.5 5.5,32.5C 5.5,30.5 5.5,28.5 5.5,26.5 Z"/></g>
<g><path style="opacity:0.961" fill="#000000" d="M 5.5,41.5 C 21.5,41.5 37.5,41.5 53.5,41.5C 53.5,43.1667 53.5,44.8333 53.5,46.5C 37.5,46.5 21.5,46.5 5.5,46.5C 5.5,44.8333 5.5,43.1667 5.5,41.5 Z"/></g>
</svg>
