<?xml version="1.0" encoding="UTF-8"?>
<!DOCTYPE svg PUBLIC "-//W3C//DTD SVG 1.1//EN" "http://www.w3.org/Graphics/SVG/1.1/DTD/svg11.dtd">
<svg xmlns="http://www.w3.org/2000/svg" version="1.1" width="60px" height="60px" style="shape-rendering:geometricPrecision; text-rendering:geometricPrecision; image-rendering:optimizeQuality; fill-rule:evenodd; clip-rule:evenodd" xmlns:xlink="http://www.w3.org/1999/xlink">
<g><path style="opacity:0.96" fill="#3d3d3d" d="M 9.5,11.5 C 22.08,11.1779 34.58,11.5112 47,12.5C 47.6667,22.8333 47.6667,33.1667 47,43.5C 35.8813,42.2557 26.2146,45.2557 18,52.5C 17.5026,49.854 17.3359,47.1873 17.5,44.5C 14.5525,44.7771 11.7191,44.4438 9,43.5C 8.19165,32.7568 8.35832,22.0901 9.5,11.5 Z M 13.5,14.5 C 23.1724,14.3335 32.8391,14.5002 42.5,15C 43,15.5 43.5,16 44,16.5C 44.6667,24.1667 44.6667,31.8333 44,39.5C 43.5,40 43,40.5 42.5,41C 36.8333,41.3333 31.1667,41.6667 25.5,42C 23.9095,43.0458 22.4095,44.2125 21,45.5C 20.51,44.2068 20.3433,42.8734 20.5,41.5C 17.3148,41.9804 14.4815,41.3137 12,39.5C 11.3333,31.8333 11.3333,24.1667 12,16.5C 12.7172,15.9558 13.2172,15.2891 13.5,14.5 Z"/></g>
</svg>
