<?xml version="1.0" encoding="UTF-8"?>
<!DOCTYPE svg PUBLIC "-//W3C//DTD SVG 1.1//EN" "http://www.w3.org/Graphics/SVG/1.1/DTD/svg11.dtd">
<svg xmlns="http://www.w3.org/2000/svg" version="1.1" width="60px" height="60px" style="shape-rendering:geometricPrecision; text-rendering:geometricPrecision; image-rendering:optimizeQuality; fill-rule:evenodd; clip-rule:evenodd" xmlns:xlink="http://www.w3.org/1999/xlink">
<g><path style="opacity:0.874" fill="#494949" d="M 25.5,4.5 C 30.2225,3.55311 34.0558,4.88644 37,8.5C 37.6667,15.5 37.6667,22.5 37,29.5C 34.5647,34.2238 30.7314,35.7238 25.5,34C 24.3333,32.8333 23.1667,31.6667 22,30.5C 21.3333,23.1667 21.3333,15.8333 22,8.5C 23.0319,6.97331 24.1986,5.63997 25.5,4.5 Z M 27.5,10.5 C 28.8221,10.33 29.9887,10.6634 31,11.5C 31.6667,16.8333 31.6667,22.1667 31,27.5C 29.9887,28.3366 28.8221,28.67 27.5,28.5C 27.5,22.5 27.5,16.5 27.5,10.5 Z"/></g>
<g><path style="opacity:0.872" fill="#494949" d="M 11.5,26.5 C 13.5,26.5 15.5,26.5 17.5,26.5C 18.9872,36.2573 24.6539,40.0906 34.5,38C 38.6784,35.3151 41.0117,31.4818 41.5,26.5C 43.5,26.5 45.5,26.5 47.5,26.5C 47.1846,36.4901 42.1846,42.4901 32.5,44.5C 32.5,47.1667 32.5,49.8333 32.5,52.5C 30.5,52.5 28.5,52.5 26.5,52.5C 26.5,49.8333 26.5,47.1667 26.5,44.5C 16.8154,42.4901 11.8154,36.4901 11.5,26.5 Z"/></g>
</svg>
