<?xml version="1.0" encoding="UTF-8"?>
<!DOCTYPE svg PUBLIC "-//W3C//DTD SVG 1.1//EN" "http://www.w3.org/Graphics/SVG/1.1/DTD/svg11.dtd">
<svg xmlns="http://www.w3.org/2000/svg" version="1.1" width="512px" height="512px" style="shape-rendering:geometricPrecision; text-rendering:geometricPrecision; image-rendering:optimizeQuality; fill-rule:evenodd; clip-rule:evenodd" xmlns:xlink="http://www.w3.org/1999/xlink">
<g><path style="opacity:0.991" fill="#07abce" d="M 174.5,-0.5 C 178.167,-0.5 181.833,-0.5 185.5,-0.5C 192.36,3.55675 194.86,9.55675 193,17.5C 187.312,26.8759 182.145,36.5426 177.5,46.5C 150.833,46.5 124.167,46.5 97.5,46.5C 120.429,26.5268 146.096,10.8601 174.5,-0.5 Z"/></g>
<g><path style="opacity:0.993" fill="#0ea5cc" d="M 97.5,46.5 C 124.167,46.5 150.833,46.5 177.5,46.5C 172.909,56.939 168.909,67.6057 165.5,78.5C 132.069,79.8286 98.7357,79.8286 65.5,78.5C 75.1667,66.8333 85.8333,56.1667 97.5,46.5 Z"/></g>
<g><path style="opacity:0.994" fill="#159ec8" d="M 65.5,78.5 C 98.7357,79.8286 132.069,79.8286 165.5,78.5C 162.269,90.6561 159.936,102.989 158.5,115.5C 119.167,115.5 79.8333,115.5 40.5,115.5C 47.5983,102.294 55.9317,89.9609 65.5,78.5 Z"/></g>
<g><path style="opacity:0.995" fill="#1c98c5" d="M 40.5,115.5 C 79.8333,115.5 119.167,115.5 158.5,115.5C 156.927,127.423 156.261,139.423 156.5,151.5C 112.239,150.506 67.9055,150.172 23.5,150.5C 27.8571,138.121 33.5238,126.454 40.5,115.5 Z"/></g>
<g><path style="opacity:0.996" fill="#2392c2" d="M 23.5,150.5 C 67.9055,150.172 112.239,150.506 156.5,151.5C 157.259,162.573 158.592,173.573 160.5,184.5C 111.238,183.505 61.9052,183.172 12.5,183.5C 15.1907,172.095 18.8574,161.095 23.5,150.5 Z"/></g>
<g><path style="opacity:0.996" fill="#298dc0" d="M 12.5,183.5 C 61.9052,183.172 111.238,183.505 160.5,184.5C 161.912,191.892 163.578,199.225 165.5,206.5C 113.238,205.505 60.905,205.171 8.5,205.5C 9.44792,198.094 10.7813,190.761 12.5,183.5 Z"/></g>
<g><path style="opacity:0.997" fill="#2e88bd" d="M 8.5,205.5 C 60.905,205.171 113.238,205.505 165.5,206.5C 168.44,215.654 171.773,224.654 175.5,233.5C 118.833,234.167 62.1667,234.833 5.5,235.5C 5.47982,225.353 6.47982,215.353 8.5,205.5 Z"/></g>
<g><path style="opacity:0.997" fill="#3582ba" d="M 175.5,233.5 C 180.466,245.435 186.466,256.768 193.5,267.5C 130.833,267.5 68.1667,267.5 5.5,267.5C 4.71848,256.811 4.71848,246.144 5.5,235.5C 62.1667,234.833 118.833,234.167 175.5,233.5 Z"/></g>
<g><path style="opacity:0.997" fill="#3a7eb8" d="M 5.5,267.5 C 68.1667,267.5 130.833,267.5 193.5,267.5C 198.242,274.638 203.242,281.638 208.5,288.5C 141.833,288.5 75.1667,288.5 8.5,288.5C 7.13842,281.59 6.13842,274.59 5.5,267.5 Z"/></g>
<g><path style="opacity:0.997" fill="#3f7ab6" d="M 8.5,288.5 C 75.1667,288.5 141.833,288.5 208.5,288.5C 214.861,295.193 221.194,301.86 227.5,308.5C 156.002,309.499 84.3353,309.833 12.5,309.5C 10.6589,302.626 9.32553,295.626 8.5,288.5 Z"/></g>
<g><path style="opacity:0.997" fill="#4277b4" d="M 227.5,308.5 C 233.228,314.233 239.228,319.567 245.5,324.5C 169.167,324.5 92.8333,324.5 16.5,324.5C 14.7663,319.628 13.4329,314.628 12.5,309.5C 84.3353,309.833 156.002,309.499 227.5,308.5 Z"/></g>
<g><path style="opacity:0.996" fill="#4773b2" d="M 16.5,324.5 C 92.8333,324.5 169.167,324.5 245.5,324.5C 261.24,336.037 277.907,346.037 295.5,354.5C 206.167,354.5 116.833,354.5 27.5,354.5C 23.0478,344.812 19.3811,334.812 16.5,324.5 Z"/></g>
<g><path style="opacity:0.993" fill="#4e6daf" d="M 493.5,388.5 C 419.167,387.833 344.667,387.5 270,387.5C 195.164,387.5 120.664,388.167 46.5,389.5C 39.4056,378.316 33.0723,366.649 27.5,354.5C 116.833,354.5 206.167,354.5 295.5,354.5C 360.462,380.861 424.795,379.361 488.5,350C 498.918,348.583 504.918,353.083 506.5,363.5C 503.448,372.608 499.114,380.942 493.5,388.5 Z"/></g>
<g><path style="opacity:0.998" fill="#5468ad" d="M 493.5,388.5 C 488.041,398.429 481.374,407.429 473.5,415.5C 337.334,414.5 201.001,414.167 64.5,414.5C 57.777,406.734 51.777,398.401 46.5,389.5C 120.664,388.167 195.164,387.5 270,387.5C 344.667,387.5 419.167,387.833 493.5,388.5 Z"/></g>
<g><path style="opacity:0.998" fill="#5864ab" d="M 64.5,414.5 C 201.001,414.167 337.334,414.5 473.5,415.5C 470.871,419.463 467.871,423.129 464.5,426.5C 334.999,426.167 205.666,426.5 76.5,427.5C 71.7923,423.793 67.7923,419.46 64.5,414.5 Z"/></g>
<g><path style="opacity:0.998" fill="#5b61aa" d="M 464.5,426.5 C 459.167,432.5 453.5,438.167 447.5,443.5C 329.167,442.167 210.833,442.167 92.5,443.5C 86.1455,439.145 80.8122,433.812 76.5,427.5C 205.666,426.5 334.999,426.167 464.5,426.5 Z"/></g>
<g><path style="opacity:0.998" fill="#5f5ea8" d="M 447.5,443.5 C 440.482,449.848 433.149,455.848 425.5,461.5C 373.838,460.167 321.838,459.5 269.5,459.5C 217.332,459.5 165.332,459.833 113.5,460.5C 105.626,455.964 98.6258,450.297 92.5,443.5C 210.833,442.167 329.167,442.167 447.5,443.5 Z"/></g>
<g><path style="opacity:0.997" fill="#625ca7" d="M 425.5,461.5 C 420.475,465.345 415.142,468.678 409.5,471.5C 316.167,471.5 222.833,471.5 129.5,471.5C 123.612,468.607 118.278,464.94 113.5,460.5C 165.332,459.833 217.332,459.5 269.5,459.5C 321.838,459.5 373.838,460.167 425.5,461.5 Z"/></g>
<g><path style="opacity:0.993" fill="#6559a5" d="M 129.5,471.5 C 222.833,471.5 316.167,471.5 409.5,471.5C 396.206,480.648 381.873,487.981 366.5,493.5C 301.669,492.501 236.669,492.168 171.5,492.5C 156.636,487.068 142.636,480.068 129.5,471.5 Z"/></g>
<g><path style="opacity:0.988" fill="#6956a4" d="M 171.5,492.5 C 236.669,492.168 301.669,492.501 366.5,493.5C 342.57,502.949 317.903,508.949 292.5,511.5C 277.167,511.5 261.833,511.5 246.5,511.5C 223.389,508.892 200.722,503.725 178.5,496C 175.931,495.102 173.598,493.935 171.5,492.5 Z"/></g>
</svg>
