<?xml version="1.0" encoding="UTF-8"?>
<!DOCTYPE svg PUBLIC "-//W3C//DTD SVG 1.1//EN" "http://www.w3.org/Graphics/SVG/1.1/DTD/svg11.dtd">
<svg xmlns="http://www.w3.org/2000/svg" version="1.1" width="42px" height="60px" style="shape-rendering:geometricPrecision; text-rendering:geometricPrecision; image-rendering:optimizeQuality; fill-rule:evenodd; clip-rule:evenodd" xmlns:xlink="http://www.w3.org/1999/xlink">
<g><path style="opacity:0.932" fill="#7d7d7d" d="M 41.5,27.5 C 41.5,28.8333 41.5,30.1667 41.5,31.5C 35.1667,31.5 28.8333,31.5 22.5,31.5C 22.5,37.8333 22.5,44.1667 22.5,50.5C 21.1667,50.5 19.8333,50.5 18.5,50.5C 18.5,44.1667 18.5,37.8333 18.5,31.5C 12.1667,31.5 5.83333,31.5 -0.5,31.5C -0.5,30.1667 -0.5,28.8333 -0.5,27.5C 5.83333,27.5 12.1667,27.5 18.5,27.5C 18.5,21.1667 18.5,14.8333 18.5,8.5C 19.8333,8.5 21.1667,8.5 22.5,8.5C 22.5,14.8333 22.5,21.1667 22.5,27.5C 28.8333,27.5 35.1667,27.5 41.5,27.5 Z"/></g>
</svg>
