<?xml version="1.0" encoding="UTF-8"?>
<!DOCTYPE svg PUBLIC "-//W3C//DTD SVG 1.1//EN" "http://www.w3.org/Graphics/SVG/1.1/DTD/svg11.dtd">
<svg xmlns="http://www.w3.org/2000/svg" version="1.1" width="60px" height="60px" style="shape-rendering:geometricPrecision; text-rendering:geometricPrecision; image-rendering:optimizeQuality; fill-rule:evenodd; clip-rule:evenodd" xmlns:xlink="http://www.w3.org/1999/xlink">
<g><path style="opacity:0.775" fill="#000000" d="M 25.5,2.5 C 48.81,3.45239 58.6434,15.4524 55,38.5C 48.0148,53.2414 36.5148,58.7414 20.5,55C 5.75858,48.0148 0.258583,36.5148 4,20.5C 8.00809,10.598 15.1748,4.59796 25.5,2.5 Z M 23.5,8.5 C 42.981,7.14709 51.8144,16.1471 50,35.5C 43.7123,49.8251 33.2123,53.9918 18.5,48C 8.24237,40.2712 5.74237,30.4379 11,18.5C 14.4624,14.1956 18.6291,10.8622 23.5,8.5 Z"/></g>
<g><path style="opacity:0.766" fill="#000000" d="M 27.5,15.5 C 35.981,15.814 39.481,20.1474 38,28.5C 35.8685,31.1018 34.0352,33.7684 32.5,36.5C 30.5,36.5 28.5,36.5 26.5,36.5C 26.3398,34.8008 26.5065,33.1341 27,31.5C 28.7754,29.6055 30.7754,27.9389 33,26.5C 33.6586,23.6466 32.492,21.9799 29.5,21.5C 27.6031,21.7282 26.2697,22.7282 25.5,24.5C 23.9547,25.4519 22.288,25.7852 20.5,25.5C 20.5515,20.4651 22.8848,17.1318 27.5,15.5 Z"/></g>
<g><path style="opacity:0.529" fill="#000000" d="M 26.5,37.5 C 28.5,37.5 30.5,37.5 32.5,37.5C 32.5,39.5 32.5,41.5 32.5,43.5C 30.5,43.5 28.5,43.5 26.5,43.5C 26.5,41.5 26.5,39.5 26.5,37.5 Z"/></g>
</svg>
