<?xml version="1.0" encoding="UTF-8"?>
<!DOCTYPE svg PUBLIC "-//W3C//DTD SVG 1.1//EN" "http://www.w3.org/Graphics/SVG/1.1/DTD/svg11.dtd">
<svg xmlns="http://www.w3.org/2000/svg" version="1.1" width="60px" height="60px" style="shape-rendering:geometricPrecision; text-rendering:geometricPrecision; image-rendering:optimizeQuality; fill-rule:evenodd; clip-rule:evenodd" xmlns:xlink="http://www.w3.org/1999/xlink">
<g><path style="opacity:0.82" fill="#000000" d="M 22.5,4.5 C 27.1667,4.5 31.8333,4.5 36.5,4.5C 36.2011,6.60395 36.5344,8.60395 37.5,10.5C 39.3325,11.2485 40.9991,12.2485 42.5,13.5C 44.2951,12.7349 46.1284,12.0682 48,11.5C 50.4048,14.6333 52.5714,17.9667 54.5,21.5C 51.9573,23.6909 50.2906,26.3575 49.5,29.5C 50.2906,32.6425 51.9573,35.3091 54.5,37.5C 52.5714,41.0333 50.4048,44.3667 48,47.5C 46.1284,46.9318 44.2951,46.2651 42.5,45.5C 40.9991,46.7515 39.3325,47.7515 37.5,48.5C 36.5344,50.396 36.2011,52.396 36.5,54.5C 31.8333,54.5 27.1667,54.5 22.5,54.5C 22.7989,52.396 22.4656,50.396 21.5,48.5C 19.6675,47.7515 18.0009,46.7515 16.5,45.5C 14.7049,46.2651 12.8716,46.9318 11,47.5C 8.59523,44.3667 6.42857,41.0333 4.5,37.5C 7.04272,35.3091 8.70938,32.6425 9.5,29.5C 8.70938,26.3575 7.04272,23.6909 4.5,21.5C 6.42857,17.9667 8.59523,14.6333 11,11.5C 12.8716,12.0682 14.7049,12.7349 16.5,13.5C 18.0009,12.2485 19.6675,11.2485 21.5,10.5C 22.4656,8.60395 22.7989,6.60395 22.5,4.5 Z M 28.5,9.5 C 30.9689,10.6067 31.9689,12.6067 31.5,15.5C 35.2628,16.252 38.5961,17.9187 41.5,20.5C 46.4765,17.9772 47.3099,18.9772 44,23.5C 43.8333,25.5 43.6667,27.5 43.5,29.5C 43.2297,33.333 44.063,36.6663 46,39.5C 45.6667,39.8333 45.3333,40.1667 45,40.5C 43.9148,39.7069 42.7481,39.0402 41.5,38.5C 38.5961,41.0813 35.2628,42.748 31.5,43.5C 30.1667,51.5 28.8333,51.5 27.5,43.5C 23.7372,42.748 20.4039,41.0813 17.5,38.5C 12.5235,41.0228 11.6901,40.0228 15,35.5C 15.1667,33.5 15.3333,31.5 15.5,29.5C 15.7703,25.667 14.937,22.3337 13,19.5C 13.3333,19.1667 13.6667,18.8333 14,18.5C 15.0852,19.2931 16.2519,19.9598 17.5,20.5C 20.3089,17.7622 23.6422,16.0956 27.5,15.5C 27.5172,13.4352 27.8505,11.4352 28.5,9.5 Z M 26.5,25.5 C 33.1584,24.3445 35.1584,26.8445 32.5,33C 25.7496,34.4689 23.7496,31.9689 26.5,25.5 Z"/></g>
<g><path style="opacity:0.822" fill="#000000" d="M 24.5,19.5 C 36.3244,17.8236 41.1577,22.8236 39,34.5C 35.3449,39.2745 30.5116,40.7745 24.5,39C 19.7255,35.3449 18.2255,30.5116 20,24.5C 21.3657,22.6383 22.8657,20.9717 24.5,19.5 Z M 26.5,25.5 C 23.7496,31.9689 25.7496,34.4689 32.5,33C 35.1584,26.8445 33.1584,24.3445 26.5,25.5 Z"/></g>
</svg>
