<?xml version="1.0" encoding="UTF-8"?>
<!DOCTYPE svg PUBLIC "-//W3C//DTD SVG 1.1//EN" "http://www.w3.org/Graphics/SVG/1.1/DTD/svg11.dtd">
<svg xmlns="http://www.w3.org/2000/svg" version="1.1" width="512px" height="512px" style="shape-rendering:geometricPrecision; text-rendering:geometricPrecision; image-rendering:optimizeQuality; fill-rule:evenodd; clip-rule:evenodd" xmlns:xlink="http://www.w3.org/1999/xlink">
<g><path style="opacity:0.995" fill="#81b3f9" d="M 271.5,82.5 C 260.806,76.488 250.139,70.488 239.5,64.5C 239.334,56.8261 239.5,49.1594 240,41.5C 244.473,32.5178 251.64,29.3511 261.5,32C 266,33.8333 269.167,37 271,41.5C 271.5,55.1626 271.667,68.8293 271.5,82.5 Z"/></g>
<g><path style="opacity:0.998" fill="#7daaf5" d="M 239.5,64.5 C 250.139,70.488 260.806,76.488 271.5,82.5C 271.666,88.8421 271.5,95.1754 271,101.5C 266.527,110.482 259.36,113.649 249.5,111C 245,109.167 241.833,106 240,101.5C 239.5,89.1712 239.333,76.8378 239.5,64.5 Z"/></g>
<g><path style="opacity:0.977" fill="#7192ea" d="M 158.5,145.5 C 136.5,132.833 114.5,120.167 92.5,107.5C 93.4335,97.8996 98.7669,92.5663 108.5,91.5C 112.028,92.1058 115.361,93.2725 118.5,95C 131,107.5 143.5,120 156,132.5C 158.463,136.644 159.297,140.977 158.5,145.5 Z"/></g>
<g><path style="opacity:0.981" fill="#84bafd" d="M 409.5,124.5 C 400.167,118.5 390.833,112.5 381.5,106.5C 385.708,101.125 390.708,96.6253 396.5,93C 409.459,90.1544 417.126,95.321 419.5,108.5C 418.692,115.456 415.359,120.789 409.5,124.5 Z"/></g>
<g><path style="opacity:0.984" fill="#6e8de8" d="M 92.5,107.5 C 114.5,120.167 136.5,132.833 158.5,145.5C 156.642,154.019 151.309,158.686 142.5,159.5C 138.972,158.894 135.639,157.728 132.5,156C 120,143.5 107.5,131 95,118.5C 92.7805,114.877 91.9472,111.211 92.5,107.5 Z"/></g>
<g><path style="opacity:0.997" fill="#7fb0f8" d="M 381.5,106.5 C 390.833,112.5 400.167,118.5 409.5,124.5C 399.369,135.132 389.035,145.632 378.5,156C 372.675,158.923 366.675,159.256 360.5,157C 353.286,152.037 350.786,145.203 353,136.5C 361.636,125.697 371.136,115.697 381.5,106.5 Z"/></g>
<g><path style="opacity:0.99" fill="#7499ed" d="M 248.5,143.5 C 284.043,164.75 319.709,185.084 355.5,204.5C 361.557,215.677 365.224,227.677 366.5,240.5C 353.393,233.444 340.393,226.111 327.5,218.5C 326.893,218.624 326.56,218.957 326.5,219.5C 311.271,192.327 287.937,177.66 256.5,175.5C 253.575,175.54 250.909,174.707 248.5,173C 237.663,166.414 226.663,160.081 215.5,154C 214.619,153.292 213.953,152.458 213.5,151.5C 224.526,146.558 236.192,143.892 248.5,143.5 Z"/></g>
<g><path style="opacity:0.974" fill="#779ff0" d="M 248.5,143.5 C 292.492,141.911 326.659,159.245 351,195.5C 352.761,198.411 354.261,201.411 355.5,204.5C 319.709,185.084 284.043,164.75 248.5,143.5 Z"/></g>
<g><path style="opacity:0.978" fill="#7193eb" d="M 213.5,151.5 C 213.953,152.458 214.619,153.292 215.5,154C 226.663,160.081 237.663,166.414 248.5,173C 250.909,174.707 253.575,175.54 256.5,175.5C 247.111,176.108 237.778,177.775 228.5,180.5C 217.462,173.648 206.129,167.314 194.5,161.5C 200.067,156.882 206.4,153.548 213.5,151.5 Z"/></g>
<g><path style="opacity:0.986" fill="#6e8de8" d="M 194.5,161.5 C 206.129,167.314 217.462,173.648 228.5,180.5C 219.406,184.214 211.073,189.214 203.5,195.5C 193.193,190.213 182.86,184.879 172.5,179.5C 178.956,172.372 186.29,166.372 194.5,161.5 Z"/></g>
<g><path style="opacity:0.982" fill="#6b86e5" d="M 172.5,179.5 C 182.86,184.879 193.193,190.213 203.5,195.5C 198.157,200.844 193.157,206.511 188.5,212.5C 178.967,206.901 169.3,201.567 159.5,196.5C 163.481,190.525 167.814,184.858 172.5,179.5 Z"/></g>
<g><path style="opacity:0.982" fill="#687fe2" d="M 159.5,196.5 C 169.3,201.567 178.967,206.901 188.5,212.5C 184.583,219.66 181.25,226.993 178.5,234.5C 177.883,234.611 177.383,234.944 177,235.5C 167.853,229.683 158.686,224.016 149.5,218.5C 151.756,210.656 155.09,203.322 159.5,196.5 Z"/></g>
<g><path style="opacity:0.985" fill="#7193eb" d="M 366.5,240.5 C 367.491,246.979 367.824,253.646 367.5,260.5C 356.139,254.155 344.806,247.821 333.5,241.5C 331.966,233.9 329.633,226.566 326.5,219.5C 326.56,218.957 326.893,218.624 327.5,218.5C 340.393,226.111 353.393,233.444 366.5,240.5 Z"/></g>
<g><path style="opacity:0.983" fill="#6579df" d="M 149.5,218.5 C 158.686,224.016 167.853,229.683 177,235.5C 177.383,234.944 177.883,234.611 178.5,234.5C 176.88,242.742 176.214,251.076 176.5,259.5C 165.551,253.69 154.885,247.357 144.5,240.5C 144.934,232.775 146.6,225.441 149.5,218.5 Z"/></g>
<g><path style="opacity:0.994" fill="#5b66d6" d="M 52.5,239.5 C 68.9388,249.559 85.6054,259.392 102.5,269C 101.944,269.383 101.611,269.883 101.5,270.5C 81.6709,271.662 61.6709,271.829 41.5,271C 32.5178,266.527 29.3511,259.36 32,249.5C 36.1926,240.988 43.026,237.654 52.5,239.5 Z"/></g>
<g><path style="opacity:0.996" fill="#5e6cd9" d="M 52.5,239.5 C 68.8367,239.333 85.1701,239.5 101.5,240C 110.482,244.473 113.649,251.64 111,261.5C 109.256,266.079 106.09,269.079 101.5,270.5C 101.611,269.883 101.944,269.383 102.5,269C 85.6054,259.392 68.9388,249.559 52.5,239.5 Z"/></g>
<g><path style="opacity:0.993" fill="#7499ed" d="M 415.5,239.5 C 432.272,249.726 449.272,259.726 466.5,269.5C 467.298,269.957 467.631,270.624 467.5,271.5C 448.164,271.667 428.83,271.5 409.5,271C 400.518,266.527 397.351,259.36 400,249.5C 402.814,242.51 407.981,239.177 415.5,239.5 Z"/></g>
<g><path style="opacity:0.993" fill="#779ff0" d="M 415.5,239.5 C 433.503,239.333 451.503,239.5 469.5,240C 478.482,244.473 481.649,251.64 479,261.5C 476.853,266.816 473.02,270.149 467.5,271.5C 467.631,270.624 467.298,269.957 466.5,269.5C 449.272,259.726 432.272,249.726 415.5,239.5 Z"/></g>
<g><path style="opacity:0.983" fill="#6273dc" d="M 144.5,240.5 C 154.885,247.357 165.551,253.69 176.5,259.5C 176.772,268.916 178.772,277.916 182.5,286.5C 181.883,286.611 181.383,286.944 181,287.5C 169.249,280.374 157.416,273.374 145.5,266.5C 144.817,266.863 144.15,267.196 143.5,267.5C 143.173,258.318 143.507,249.318 144.5,240.5 Z"/></g>
<g><path style="opacity:0.983" fill="#6f8de8" d="M 333.5,241.5 C 344.806,247.821 356.139,254.155 367.5,260.5C 367.67,267.797 366.67,274.797 364.5,281.5C 354.5,276.167 344.5,270.833 334.5,265.5C 334.77,257.445 334.437,249.445 333.5,241.5 Z"/></g>
<g><path style="opacity:0.979" fill="#6b87e5" d="M 334.5,265.5 C 344.5,270.833 354.5,276.167 364.5,281.5C 362.591,291.903 358.924,301.57 353.5,310.5C 353.439,308.408 352.439,306.908 350.5,306C 342.27,301.392 334.27,296.559 326.5,291.5C 330.171,283.153 332.838,274.486 334.5,265.5 Z"/></g>
<g><path style="opacity:0.983" fill="#5e6cd9" d="M 182.5,286.5 C 199.481,320.828 227.148,336.828 265.5,334.5C 265.369,335.376 265.702,336.043 266.5,336.5C 278.563,343.527 290.563,350.527 302.5,357.5C 292.49,362.499 281.824,365.499 270.5,366.5C 231.727,343.608 192.727,320.941 153.5,298.5C 152.893,298.624 152.56,298.957 152.5,299.5C 147.654,289.461 144.654,278.794 143.5,267.5C 144.15,267.196 144.817,266.863 145.5,266.5C 157.416,273.374 169.249,280.374 181,287.5C 181.383,286.944 181.883,286.611 182.5,286.5 Z"/></g>
<g><path style="opacity:0.981" fill="#6880e2" d="M 326.5,291.5 C 334.27,296.559 342.27,301.392 350.5,306C 352.439,306.908 353.439,308.408 353.5,310.5C 350.134,317.245 345.801,323.245 340.5,328.5C 331.236,324.201 322.236,319.367 313.5,314C 312.748,313.329 312.414,312.496 312.5,311.5C 317.588,305.087 322.255,298.42 326.5,291.5 Z"/></g>
<g><path style="opacity:0.985" fill="#5c67d7" d="M 270.5,366.5 C 223.45,371.557 186.616,354.557 160,315.5C 156.679,310.526 154.179,305.193 152.5,299.5C 152.56,298.957 152.893,298.624 153.5,298.5C 192.727,320.941 231.727,343.608 270.5,366.5 Z"/></g>
<g><path style="opacity:0.985" fill="#6579df" d="M 312.5,311.5 C 312.414,312.496 312.748,313.329 313.5,314C 322.236,319.367 331.236,324.201 340.5,328.5C 335.787,335.546 329.787,341.213 322.5,345.5C 322.586,344.504 322.252,343.671 321.5,343C 311.524,337.185 301.524,331.685 291.5,326.5C 298.755,321.92 305.755,316.92 312.5,311.5 Z"/></g>
<g><path style="opacity:0.981" fill="#6273dc" d="M 291.5,326.5 C 301.524,331.685 311.524,337.185 321.5,343C 322.252,343.671 322.586,344.504 322.5,345.5C 316.505,350.503 309.838,354.503 302.5,357.5C 290.563,350.527 278.563,343.527 266.5,336.5C 265.702,336.043 265.369,335.376 265.5,334.5C 274.567,333.068 283.234,330.401 291.5,326.5 Z"/></g>
<g><path style="opacity:0.966" fill="#6478de" d="M 418.5,400.5 C 398.019,387.421 377.019,375.087 355.5,363.5C 354.416,363.685 353.416,364.018 352.5,364.5C 354.804,356.536 360.138,352.203 368.5,351.5C 372.028,352.106 375.361,353.272 378.5,355C 391,367.5 403.5,380 416,392.5C 417.707,394.909 418.54,397.575 418.5,400.5 Z"/></g>
<g><path style="opacity:0.983" fill="#5356cf" d="M 140.5,393.5 C 131.098,387.442 121.431,381.776 111.5,376.5C 118.297,369.202 125.297,362.035 132.5,355C 138.325,352.077 144.325,351.744 150.5,354C 157.714,358.963 160.214,365.797 158,374.5C 153.037,381.63 147.203,387.963 140.5,393.5 Z"/></g>
<g><path style="opacity:0.973" fill="#6273dc" d="M 418.5,400.5 C 419.149,411.54 413.816,417.874 402.5,419.5C 398.972,418.894 395.639,417.728 392.5,416C 380,403.5 367.5,391 355,378.5C 352.409,374.055 351.576,369.388 352.5,364.5C 353.416,364.018 354.416,363.685 355.5,363.5C 377.019,375.087 398.019,387.421 418.5,400.5 Z"/></g>
<g><path style="opacity:0.971" fill="#4f4cca" d="M 111.5,376.5 C 121.431,381.776 131.098,387.442 140.5,393.5C 133.369,401.132 126.036,408.632 118.5,416C 104.223,422.195 95.2227,417.695 91.5,402.5C 92.1058,398.972 93.2725,395.639 95,392.5C 100.369,386.964 105.869,381.63 111.5,376.5 Z"/></g>
<g><path style="opacity:0.997" fill="#565bd1" d="M 271.5,442.5 C 260.833,436.5 250.167,430.5 239.5,424.5C 237.094,403.723 245.761,396.223 265.5,402C 268.106,403.938 269.939,406.438 271,409.5C 271.5,420.495 271.667,431.495 271.5,442.5 Z"/></g>
<g><path style="opacity:0.998" fill="#5252cd" d="M 239.5,424.5 C 250.167,430.5 260.833,436.5 271.5,442.5C 271.666,451.506 271.5,460.506 271,469.5C 266.527,478.482 259.36,481.649 249.5,479C 245,477.167 241.833,474 240,469.5C 239.5,454.504 239.333,439.504 239.5,424.5 Z"/></g>
</svg>
