<?xml version="1.0" encoding="UTF-8"?>
<!DOCTYPE svg PUBLIC "-//W3C//DTD SVG 1.1//EN" "http://www.w3.org/Graphics/SVG/1.1/DTD/svg11.dtd">
<svg xmlns="http://www.w3.org/2000/svg" version="1.1" width="144px" height="156px" style="shape-rendering:geometricPrecision; text-rendering:geometricPrecision; image-rendering:optimizeQuality; fill-rule:evenodd; clip-rule:evenodd" xmlns:xlink="http://www.w3.org/1999/xlink">
<g><path style="opacity:1" fill="#080807" d="M -0.5,-0.5 C 47.5,-0.5 95.5,-0.5 143.5,-0.5C 143.5,44.5 143.5,89.5 143.5,134.5C 139.439,131.309 134.772,129.476 129.5,129C 126.096,124.964 121.763,123.131 116.5,123.5C 115.713,121.896 114.38,121.229 112.5,121.5C 112.158,120.662 111.492,120.328 110.5,120.5C 107.311,119.834 103.977,119.167 100.5,118.5C 103.376,112.78 105.376,106.78 106.5,100.5C 108.167,99.8333 109.833,99.1667 111.5,98.5C 114.003,95.1651 115.669,91.4985 116.5,87.5C 117.847,86.8288 119.014,86.8288 120,87.5C 120.667,84.8333 120.667,82.1667 120,79.5C 119.667,80.1667 119.333,80.8333 119,81.5C 118.501,77.8484 118.335,74.1817 118.5,70.5C 120.39,70.7035 121.89,70.0368 123,68.5C 123.333,68.8333 123.667,69.1667 124,69.5C 124.574,67.508 125.741,66.008 127.5,65C 127.434,62.8914 127.101,60.7247 126.5,58.5C 127.025,56.0121 127.858,53.6787 129,51.5C 129.796,48.9615 129.629,46.6282 128.5,44.5C 127.5,44.5 126.5,44.5 125.5,44.5C 124.167,44.5 122.833,44.5 121.5,44.5C 121.802,41.9407 121.468,39.6074 120.5,37.5C 119.609,35.3911 118.442,33.3911 117,31.5C 117.802,28.4887 117.635,25.4887 116.5,22.5C 112.833,22.5 109.167,22.5 105.5,22.5C 104.18,21.0582 102.514,20.3915 100.5,20.5C 97.525,18.7685 94.525,16.9351 91.5,15C 89.8659,14.5065 88.1992,14.3398 86.5,14.5C 85.8333,15.1667 85.1667,15.8333 84.5,16.5C 80.9359,15.5773 77.2693,15.244 73.5,15.5C 72.391,15.4431 71.391,15.1098 70.5,14.5C 69.7784,14.9175 69.2784,15.5842 69,16.5C 64.8846,15.4212 61.2179,16.4212 58,19.5C 57.5,19.3333 57,19.1667 56.5,19C 57.376,17.414 58.376,15.914 59.5,14.5C 55.2975,15.7379 50.9642,17.4046 46.5,19.5C 45.5,19.5 44.5,19.5 43.5,19.5C 43.5,20.8333 43.5,22.1667 43.5,23.5C 41.5853,23.2155 39.9187,23.5489 38.5,24.5C 38.1667,24.5 37.8333,24.5 37.5,24.5C 35.03,27.484 32.6966,30.6506 30.5,34C 28.5753,33.8651 26.5753,33.6984 24.5,33.5C 24.5,36.1667 24.5,38.8333 24.5,41.5C 27.0593,41.8016 29.3926,41.4682 31.5,40.5C 33.4607,39.5398 35.1274,38.2065 36.5,36.5C 37.9318,39.4188 36.9318,40.7521 33.5,40.5C 33.5,42.1667 33.5,43.8333 33.5,45.5C 32.4248,48.2393 30.4248,49.906 27.5,50.5C 26.791,49.596 25.791,49.2627 24.5,49.5C 24.5,47.8333 24.5,46.1667 24.5,44.5C 23.2568,46.3165 21.2568,47.8165 18.5,49C 20.8965,52.2498 24.0632,54.4165 28,55.5C 27.8651,57.4247 27.6984,59.4247 27.5,61.5C 29.4835,61.6168 31.1502,60.9501 32.5,59.5C 32.4983,61.537 32.8316,63.537 33.5,65.5C 33.6038,68.0895 32.9371,70.4229 31.5,72.5C 32.9848,75.1188 33.9848,77.9522 34.5,81C 34.1667,81.8333 33.8333,82.6667 33.5,83.5C 32.4822,82.8075 31.4822,82.1408 30.5,81.5C 30.7852,79.712 30.4519,78.0453 29.5,76.5C 28.4224,83.4514 29.4224,90.1181 32.5,96.5C 33.5676,97.4345 34.901,97.7678 36.5,97.5C 36.5045,101.534 36.8379,105.534 37.5,109.5C 38.1471,114.155 40.1471,118.155 43.5,121.5C 42.675,122.386 41.675,122.719 40.5,122.5C 40.9661,126.162 40.2994,129.495 38.5,132.5C 38.5,132.833 38.5,133.167 38.5,133.5C 36.9373,134.945 35.604,136.611 34.5,138.5C 33.1667,139.5 31.8333,140.5 30.5,141.5C 28.396,141.799 26.396,141.466 24.5,140.5C 22.6363,138.4 20.3029,137.067 17.5,136.5C 14.6016,134.227 11.6016,132.227 8.5,130.5C 5.63771,129.319 2.63771,129.319 -0.5,130.5C -0.5,86.8333 -0.5,43.1667 -0.5,-0.5 Z"/></g>
<g><path style="opacity:1" fill="#5d4f2a" d="M 73.5,15.5 C 77.2693,15.244 80.9359,15.5773 84.5,16.5C 85.1667,17.5 85.8333,18.5 86.5,19.5C 83.2129,18.8386 79.8796,18.3386 76.5,18C 75.4293,17.1482 74.4293,16.3149 73.5,15.5 Z"/></g>
<g><path style="opacity:1" fill="#291f0f" d="M 86.5,14.5 C 90.231,21.5149 95.8976,25.8483 103.5,27.5C 104.091,24.3247 103.091,21.9913 100.5,20.5C 102.514,20.3915 104.18,21.0582 105.5,22.5C 107.218,23.224 109.052,23.8906 111,24.5C 111.667,26.1667 111.667,27.8333 111,29.5C 108.756,25.2775 107.59,25.6108 107.5,30.5C 103.273,29.1507 99.2732,29.4841 95.5,31.5C 95.1667,31.5 94.8333,31.5 94.5,31.5C 92.5648,30.8505 90.5648,30.5172 88.5,30.5C 88.5,29.8333 88.5,29.1667 88.5,28.5C 90.5,28.8333 92.5,29.1667 94.5,29.5C 94.6567,28.1266 94.49,26.7932 94,25.5C 91.6253,23.2864 89.1253,21.2864 86.5,19.5C 85.8333,18.5 85.1667,17.5 84.5,16.5C 85.1667,15.8333 85.8333,15.1667 86.5,14.5 Z"/></g>
<g><path style="opacity:1" fill="#97874e" d="M 70.5,14.5 C 71.391,15.1098 72.391,15.4431 73.5,15.5C 74.4293,16.3149 75.4293,17.1482 76.5,18C 79.8796,18.3386 83.2129,18.8386 86.5,19.5C 87.4383,21.3257 88.4383,23.159 89.5,25C 89.472,26.0698 89.1386,26.9032 88.5,27.5C 86.5,27.1667 84.5,26.8333 82.5,26.5C 79.8147,24.5383 76.8147,23.0383 73.5,22C 72.3816,20.9264 71.3816,19.7598 70.5,18.5C 69.0494,22.2875 66.3827,24.6209 62.5,25.5C 61.8333,25.5 61.1667,25.5 60.5,25.5C 61.6808,23.9328 63.3474,23.0995 65.5,23C 66.2524,22.3292 66.5858,21.4959 66.5,20.5C 67.0478,18.4677 68.3812,17.4677 70.5,17.5C 70.5,16.5 70.5,15.5 70.5,14.5 Z"/></g>
<g><path style="opacity:1" fill="#2c210d" d="M 46.5,19.5 C 45.9094,20.1515 45.2427,20.8182 44.5,21.5C 45.2458,22.7362 45.5792,24.0695 45.5,25.5C 48.2853,25.067 50.6187,23.7337 52.5,21.5C 53.4519,23.0453 53.7852,24.712 53.5,26.5C 52.5,26.5 51.5,26.5 50.5,26.5C 49.391,26.5569 48.391,26.8902 47.5,27.5C 47.44,26.9569 47.1067,26.6236 46.5,26.5C 45.4822,27.1925 44.4822,27.8592 43.5,28.5C 41.4588,28.1459 39.6255,28.1459 38,28.5C 37.51,27.2068 37.3433,25.8734 37.5,24.5C 37.8333,24.5 38.1667,24.5 38.5,24.5C 39.9187,23.5489 41.5853,23.2155 43.5,23.5C 43.5,22.1667 43.5,20.8333 43.5,19.5C 44.5,19.5 45.5,19.5 46.5,19.5 Z"/></g>
<g><path style="opacity:1" fill="#6d5b25" d="M 66.5,20.5 C 66.5858,21.4959 66.2524,22.3292 65.5,23C 63.3474,23.0995 61.6808,23.9328 60.5,25.5C 58.5,25.1667 56.5,24.8333 54.5,24.5C 54.33,23.1779 54.6634,22.0113 55.5,21C 59.3344,20.7997 63.0011,20.6331 66.5,20.5 Z"/></g>
<g><path style="opacity:1" fill="#817857" d="M 38.5,24.5 C 42.2434,24.4592 42.4101,25.1259 39,26.5C 38.5357,25.9056 38.369,25.2389 38.5,24.5 Z"/></g>
<g><path style="opacity:1" fill="#443415" d="M 70.5,14.5 C 70.5,15.5 70.5,16.5 70.5,17.5C 68.3812,17.4677 67.0478,18.4677 66.5,20.5C 63.0011,20.6331 59.3344,20.7997 55.5,21C 54.6634,22.0113 54.33,23.1779 54.5,24.5C 56.5,24.8333 58.5,25.1667 60.5,25.5C 61.1667,25.5 61.8333,25.5 62.5,25.5C 59.6393,26.3398 56.9727,27.6732 54.5,29.5C 53.5525,28.0221 52.2191,27.0221 50.5,26.5C 51.5,26.5 52.5,26.5 53.5,26.5C 53.7852,24.712 53.4519,23.0453 52.5,21.5C 50.6187,23.7337 48.2853,25.067 45.5,25.5C 45.5792,24.0695 45.2458,22.7362 44.5,21.5C 45.2427,20.8182 45.9094,20.1515 46.5,19.5C 50.9642,17.4046 55.2975,15.7379 59.5,14.5C 58.376,15.914 57.376,17.414 56.5,19C 57,19.1667 57.5,19.3333 58,19.5C 61.2179,16.4212 64.8846,15.4212 69,16.5C 69.2784,15.5842 69.7784,14.9175 70.5,14.5 Z"/></g>
<g><path style="opacity:1" fill="#6f5f34" d="M 86.5,19.5 C 89.1253,21.2864 91.6253,23.2864 94,25.5C 94.49,26.7932 94.6567,28.1266 94.5,29.5C 92.5,29.1667 90.5,28.8333 88.5,28.5C 88.5,28.1667 88.5,27.8333 88.5,27.5C 89.1386,26.9032 89.472,26.0698 89.5,25C 88.4383,23.159 87.4383,21.3257 86.5,19.5 Z"/></g>
<g><path style="opacity:1" fill="#42351a" d="M 86.5,14.5 C 88.1992,14.3398 89.8659,14.5065 91.5,15C 94.525,16.9351 97.525,18.7685 100.5,20.5C 103.091,21.9913 104.091,24.3247 103.5,27.5C 95.8976,25.8483 90.231,21.5149 86.5,14.5 Z"/></g>
<g><path style="opacity:1" fill="#43351a" d="M 68.5,26.5 C 67.1473,28.7379 65.1473,30.0713 62.5,30.5C 64.0337,28.631 66.0337,27.2977 68.5,26.5 Z"/></g>
<g><path style="opacity:1" fill="#7c6535" d="M 68.5,26.5 C 72.0847,26.1524 75.418,26.819 78.5,28.5C 78.477,30.9267 77.977,33.26 77,35.5C 74.916,32.967 72.916,32.967 71,35.5C 69.984,34.3659 69.3173,34.6992 69,36.5C 67.1839,35.6705 65.3506,34.8372 63.5,34C 62.6634,32.9887 62.33,31.8221 62.5,30.5C 65.1473,30.0713 67.1473,28.7379 68.5,26.5 Z"/></g>
<g><path style="opacity:1" fill="#191309" d="M 105.5,22.5 C 109.167,22.5 112.833,22.5 116.5,22.5C 117.635,25.4887 117.802,28.4887 117,31.5C 118.442,33.3911 119.609,35.3911 120.5,37.5C 120.25,38.9221 119.417,39.9221 118,40.5C 116.473,38.779 115.473,36.779 115,34.5C 113.844,33.0072 113.01,33.1739 112.5,35C 114.544,38.6849 116.21,42.5182 117.5,46.5C 116.037,49.4079 113.87,50.0746 111,48.5C 110.105,45.417 109.105,42.417 108,39.5C 106.961,40.7101 105.794,41.7101 104.5,42.5C 103.766,41.2921 103.433,39.9587 103.5,38.5C 102.127,38.6567 100.793,38.49 99.5,38C 101.607,36.7365 102.607,34.9032 102.5,32.5C 100.833,32.5 99.1667,32.5 97.5,32.5C 96.5084,32.6716 95.8417,32.3382 95.5,31.5C 99.2732,29.4841 103.273,29.1507 107.5,30.5C 107.59,25.6108 108.756,25.2775 111,29.5C 111.667,27.8333 111.667,26.1667 111,24.5C 109.052,23.8906 107.218,23.224 105.5,22.5 Z"/></g>
<g><path style="opacity:1" fill="#140f07" d="M 82.5,26.5 C 81.8166,28.1765 80.4832,28.8432 78.5,28.5C 75.418,26.819 72.0847,26.1524 68.5,26.5C 66.0337,27.2977 64.0337,28.631 62.5,30.5C 58.3661,31.0153 54.3661,32.0153 50.5,33.5C 46.5967,33.6783 43.5967,35.345 41.5,38.5C 42.4431,41.1092 44.1097,43.1092 46.5,44.5C 48.444,43.1993 50.444,42.1993 52.5,41.5C 54.4435,40.9217 54.7768,39.9217 53.5,38.5C 55.4648,37.7078 57.4648,37.0412 59.5,36.5C 60.5624,37.4246 60.5624,38.4246 59.5,39.5C 58.5,39.8333 57.8333,40.5 57.5,41.5C 55.9382,41.7329 54.6049,42.3995 53.5,43.5C 50.1943,46.3118 46.5276,48.4784 42.5,50C 40.372,51.7918 39.0387,53.9584 38.5,56.5C 37.8333,56.5 37.5,56.8333 37.5,57.5C 35.5953,59.8804 34.262,62.5471 33.5,65.5C 32.8316,63.537 32.4983,61.537 32.5,59.5C 31.1502,60.9501 29.4835,61.6168 27.5,61.5C 27.6984,59.4247 27.8651,57.4247 28,55.5C 24.0632,54.4165 20.8965,52.2498 18.5,49C 21.2568,47.8165 23.2568,46.3165 24.5,44.5C 24.5,46.1667 24.5,47.8333 24.5,49.5C 25.791,49.2627 26.791,49.596 27.5,50.5C 26.325,50.281 25.325,50.6143 24.5,51.5C 26.2492,53.5314 28.2492,53.8647 30.5,52.5C 31.7481,53.0402 32.9148,53.7069 34,54.5C 35.7228,52.2083 37.5562,50.0416 39.5,48C 39.3552,47.228 39.0219,46.5613 38.5,46C 36.8659,45.5065 35.1992,45.3398 33.5,45.5C 33.5,43.8333 33.5,42.1667 33.5,40.5C 36.9318,40.7521 37.9318,39.4188 36.5,36.5C 35.1274,38.2065 33.4607,39.5398 31.5,40.5C 34.0616,37.0591 36.3949,33.3924 38.5,29.5C 40.5416,32.0038 42.2083,31.6704 43.5,28.5C 44.4822,27.8592 45.4822,27.1925 46.5,26.5C 47.1067,26.6236 47.44,26.9569 47.5,27.5C 47.5,28.5 47.5,29.5 47.5,30.5C 49.9496,30.702 52.283,30.3686 54.5,29.5C 56.9727,27.6732 59.6393,26.3398 62.5,25.5C 66.3827,24.6209 69.0494,22.2875 70.5,18.5C 71.3816,19.7598 72.3816,20.9264 73.5,22C 76.8147,23.0383 79.8147,24.5383 82.5,26.5 Z"/></g>
<g><path style="opacity:1" fill="#65562e" d="M 50.5,26.5 C 52.2191,27.0221 53.5525,28.0221 54.5,29.5C 52.283,30.3686 49.9496,30.702 47.5,30.5C 47.5,29.5 47.5,28.5 47.5,27.5C 48.391,26.8902 49.391,26.5569 50.5,26.5 Z"/></g>
<g><path style="opacity:1" fill="#7d6e3a" d="M 88.5,30.5 C 90.5648,30.5172 92.5648,30.8505 94.5,31.5C 92.7971,33.1408 90.6305,34.1408 88,34.5C 87.235,32.9343 87.4017,31.6009 88.5,30.5 Z"/></g>
<g><path style="opacity:1" fill="#1e190c" d="M 37.5,24.5 C 37.3433,25.8734 37.51,27.2068 38,28.5C 39.6255,28.1459 41.4588,28.1459 43.5,28.5C 42.2083,31.6704 40.5416,32.0038 38.5,29.5C 36.3949,33.3924 34.0616,37.0591 31.5,40.5C 29.3926,41.4682 27.0593,41.8016 24.5,41.5C 24.5,38.8333 24.5,36.1667 24.5,33.5C 26.5753,33.6984 28.5753,33.8651 30.5,34C 32.6966,30.6506 35.03,27.484 37.5,24.5 Z"/></g>
<g><path style="opacity:1" fill="#594824" d="M 82.5,26.5 C 84.5,26.8333 86.5,27.1667 88.5,27.5C 88.5,27.8333 88.5,28.1667 88.5,28.5C 88.5,29.1667 88.5,29.8333 88.5,30.5C 87.4017,31.6009 87.235,32.9343 88,34.5C 90.6305,34.1408 92.7971,33.1408 94.5,31.5C 94.8333,31.5 95.1667,31.5 95.5,31.5C 95.8417,32.3382 96.5084,32.6716 97.5,32.5C 98.3984,33.1577 99.3984,33.8243 100.5,34.5C 97.6582,35.0045 96.3249,36.6711 96.5,39.5C 89.7301,40.9166 86.0635,38.2499 85.5,31.5C 83.8333,31.5 82.1667,31.5 80.5,31.5C 80.3505,32.552 80.5172,33.552 81,34.5C 83.0396,36.3702 84.8729,38.3702 86.5,40.5C 84.8333,40.5 83.1667,40.5 81.5,40.5C 74.3524,39.5084 67.0191,39.175 59.5,39.5C 60.5624,38.4246 60.5624,37.4246 59.5,36.5C 57.4648,37.0412 55.4648,37.7078 53.5,38.5C 54.7768,39.9217 54.4435,40.9217 52.5,41.5C 52.3318,38.9486 51.3318,38.2819 49.5,39.5C 48.596,38.791 48.2627,37.791 48.5,36.5C 49.552,36.6495 50.552,36.4828 51.5,36C 50.7476,35.3292 50.4142,34.4959 50.5,33.5C 54.3661,32.0153 58.3661,31.0153 62.5,30.5C 62.33,31.8221 62.6634,32.9887 63.5,34C 65.3506,34.8372 67.1839,35.6705 69,36.5C 69.3173,34.6992 69.984,34.3659 71,35.5C 72.916,32.967 74.916,32.967 77,35.5C 77.977,33.26 78.477,30.9267 78.5,28.5C 80.4832,28.8432 81.8166,28.1765 82.5,26.5 Z"/></g>
<g><path style="opacity:1" fill="#251d0c" d="M 97.5,32.5 C 99.1667,32.5 100.833,32.5 102.5,32.5C 102.607,34.9032 101.607,36.7365 99.5,38C 100.793,38.49 102.127,38.6567 103.5,38.5C 103.433,39.9587 103.766,41.2921 104.5,42.5C 100.152,42.0907 95.819,41.9241 91.5,42C 92.3805,42.7083 93.0472,43.5416 93.5,44.5C 92.8333,44.5 92.1667,44.5 91.5,44.5C 90.5637,43.0256 89.2303,42.0256 87.5,41.5C 86.8333,41.5 86.5,41.1667 86.5,40.5C 84.8729,38.3702 83.0396,36.3702 81,34.5C 80.5172,33.552 80.3505,32.552 80.5,31.5C 82.1667,31.5 83.8333,31.5 85.5,31.5C 86.0635,38.2499 89.7301,40.9166 96.5,39.5C 96.3249,36.6711 97.6582,35.0045 100.5,34.5C 99.3984,33.8243 98.3984,33.1577 97.5,32.5 Z"/></g>
<g><path style="opacity:1" fill="#938563" d="M 59.5,39.5 C 67.0191,39.175 74.3524,39.5084 81.5,40.5C 73.445,40.2299 65.445,40.5632 57.5,41.5C 57.8333,40.5 58.5,39.8333 59.5,39.5 Z"/></g>
<g><path style="opacity:1" fill="#857848" d="M 52.5,41.5 C 50.8212,41.7148 49.8212,41.0481 49.5,39.5C 51.3318,38.2819 52.3318,38.9486 52.5,41.5 Z"/></g>
<g><path style="opacity:1" fill="#30250c" d="M 50.5,33.5 C 50.4142,34.4959 50.7476,35.3292 51.5,36C 50.552,36.4828 49.552,36.6495 48.5,36.5C 48.2627,37.791 48.596,38.791 49.5,39.5C 49.8212,41.0481 50.8212,41.7148 52.5,41.5C 50.444,42.1993 48.444,43.1993 46.5,44.5C 44.1097,43.1092 42.4431,41.1092 41.5,38.5C 43.5967,35.345 46.5967,33.6783 50.5,33.5 Z"/></g>
<g><path style="opacity:1" fill="#c6b79c" d="M 81.5,40.5 C 83.1667,40.5 84.8333,40.5 86.5,40.5C 86.5,41.1667 86.8333,41.5 87.5,41.5C 87.3796,43.1986 87.0463,44.8653 86.5,46.5C 87.545,48.2049 88.8783,49.7049 90.5,51C 87.24,50.5182 83.9066,50.5182 80.5,51C 84.082,52.2508 87.7487,53.2508 91.5,54C 91.9574,54.414 92.2907,54.914 92.5,55.5C 87.939,55.9802 83.6056,55.9802 79.5,55.5C 80.09,56.7989 81.09,57.6322 82.5,58C 95.1641,59.7919 95.3307,60.9586 83,61.5C 76.6136,60.7982 70.447,60.7982 64.5,61.5C 63.2997,60.4688 61.9663,59.6355 60.5,59C 56.5,58.6667 52.5,58.3333 48.5,58C 50.9698,56.886 53.6364,56.386 56.5,56.5C 58.8333,56.6667 61.1667,56.8333 63.5,57C 64,57.5 64.5,58 65,58.5C 65.7724,57.1509 66.9391,56.3176 68.5,56C 63.8002,53.7773 58.9669,53.2773 54,54.5C 49.6689,54.078 49.5023,53.2446 53.5,52C 61.1643,52.0552 68.8309,52.0552 76.5,52C 73.5285,51.2057 70.5285,50.539 67.5,50C 68.5,49.6667 69.5,49.3333 70.5,49C 65.7982,48.8283 61.1315,48.3283 56.5,47.5C 57.376,46.7492 58.376,46.2492 59.5,46C 56.9849,45.0611 56.3183,43.5611 57.5,41.5C 65.445,40.5632 73.445,40.2299 81.5,40.5 Z"/></g>
<g><path style="opacity:1" fill="#816f59" d="M 91.5,44.5 C 92.1667,44.5 92.8333,44.5 93.5,44.5C 94.8993,45.8897 96.5659,46.8897 98.5,47.5C 101.248,50.7315 103.248,54.3982 104.5,58.5C 104.53,59.4972 104.03,60.1639 103,60.5C 101.416,60.0116 100.249,59.0116 99.5,57.5C 98.4824,59.5939 97.4824,61.5939 96.5,63.5C 97.4873,58.8827 98.154,54.216 98.5,49.5C 95.9203,48.2653 93.587,46.5986 91.5,44.5 Z"/></g>
<g><path style="opacity:1" fill="#281f11" d="M 33.5,45.5 C 35.1992,45.3398 36.8659,45.5065 38.5,46C 39.0219,46.5613 39.3552,47.228 39.5,48C 37.5562,50.0416 35.7228,52.2083 34,54.5C 32.9148,53.7069 31.7481,53.0402 30.5,52.5C 28.2492,53.8647 26.2492,53.5314 24.5,51.5C 25.325,50.6143 26.325,50.281 27.5,50.5C 30.4248,49.906 32.4248,48.2393 33.5,45.5 Z"/></g>
<g><path style="opacity:1" fill="#a8977f" d="M 57.5,41.5 C 56.3183,43.5611 56.9849,45.0611 59.5,46C 58.376,46.2492 57.376,46.7492 56.5,47.5C 61.1315,48.3283 65.7982,48.8283 70.5,49C 69.5,49.3333 68.5,49.6667 67.5,50C 70.5285,50.539 73.5285,51.2057 76.5,52C 68.8309,52.0552 61.1643,52.0552 53.5,52C 49.5023,53.2446 49.6689,54.078 54,54.5C 58.9669,53.2773 63.8002,53.7773 68.5,56C 66.9391,56.3176 65.7724,57.1509 65,58.5C 64.5,58 64,57.5 63.5,57C 61.1667,56.8333 58.8333,56.6667 56.5,56.5C 53.6364,56.386 50.9698,56.886 48.5,58C 52.5,58.3333 56.5,58.6667 60.5,59C 61.9663,59.6355 63.2997,60.4688 64.5,61.5C 70.447,60.7982 76.6136,60.7982 83,61.5C 95.3307,60.9586 95.1641,59.7919 82.5,58C 81.09,57.6322 80.09,56.7989 79.5,55.5C 83.6056,55.9802 87.939,55.9802 92.5,55.5C 92.2907,54.914 91.9574,54.414 91.5,54C 87.7487,53.2508 84.082,52.2508 80.5,51C 83.9066,50.5182 87.24,50.5182 90.5,51C 88.8783,49.7049 87.545,48.2049 86.5,46.5C 87.0463,44.8653 87.3796,43.1986 87.5,41.5C 89.2303,42.0256 90.5637,43.0256 91.5,44.5C 93.587,46.5986 95.9203,48.2653 98.5,49.5C 98.154,54.216 97.4873,58.8827 96.5,63.5C 87.5585,63.3891 78.7252,63.3891 70,63.5C 68.7387,63.2409 67.7387,62.5742 67,61.5C 65.9188,63.7671 64.4188,63.9338 62.5,62C 56.1754,61.5005 49.8421,61.3338 43.5,61.5C 43.2035,58.2761 43.8702,55.2761 45.5,52.5C 46.325,51.6143 47.325,51.281 48.5,51.5C 48.5,48.1667 50.1667,46.5 53.5,46.5C 53.5,45.5 53.5,44.5 53.5,43.5C 54.6049,42.3995 55.9382,41.7329 57.5,41.5 Z"/></g>
<g><path style="opacity:1" fill="#423522" d="M 110.5,70.5 C 109.255,73.3484 108.255,76.3484 107.5,79.5C 106.817,79.8627 106.15,80.1961 105.5,80.5C 107.278,76.4347 107.945,72.1014 107.5,67.5C 106.571,66.6851 105.571,65.8518 104.5,65C 105.811,62.7265 105.811,60.5598 104.5,58.5C 103.248,54.3982 101.248,50.7315 98.5,47.5C 101.119,47.7683 103.619,47.435 106,46.5C 107.791,51.6346 110.458,56.3012 114,60.5C 114.667,62.1667 114.667,63.8333 114,65.5C 112.198,66.7893 111.031,68.4559 110.5,70.5 Z"/></g>
<g><path style="opacity:1" fill="#705d4b" d="M 53.5,43.5 C 53.5,44.5 53.5,45.5 53.5,46.5C 50.1667,46.5 48.5,48.1667 48.5,51.5C 47.325,51.281 46.325,51.6143 45.5,52.5C 43.8702,55.2761 43.2035,58.2761 43.5,61.5C 49.8421,61.3338 56.1754,61.5005 62.5,62C 64.4188,63.9338 65.9188,63.7671 67,61.5C 67.7387,62.5742 68.7387,63.2409 70,63.5C 78.7252,63.3891 87.5585,63.3891 96.5,63.5C 97.4824,61.5939 98.4824,59.5939 99.5,57.5C 100.249,59.0116 101.416,60.0116 103,60.5C 104.03,60.1639 104.53,59.4972 104.5,58.5C 105.811,60.5598 105.811,62.7265 104.5,65C 105.571,65.8518 106.571,66.6851 107.5,67.5C 104.021,70.1203 100.354,72.4537 96.5,74.5C 99.0463,70.9398 98.3796,67.7731 94.5,65C 87.8417,64.5004 81.175,64.3337 74.5,64.5C 74.5,68.1667 74.5,71.8333 74.5,75.5C 76.1992,75.6602 77.8659,75.4935 79.5,75C 80.2524,74.3292 80.5858,73.4959 80.5,72.5C 81.1667,72.5 81.5,72.1667 81.5,71.5C 84.3854,71.1936 87.0521,71.5269 89.5,72.5C 87.076,72.1924 84.7427,72.5258 82.5,73.5C 85.0756,74.8834 84.7423,75.7167 81.5,76C 82.3279,76.9147 83.3279,77.5814 84.5,78C 83.9056,78.4643 83.2389,78.631 82.5,78.5C 81.391,78.4431 80.391,78.1098 79.5,77.5C 79.1583,76.6618 78.4916,76.3284 77.5,76.5C 76.0568,77.3351 75.0568,78.6684 74.5,80.5C 73.5283,76.5331 72.6949,72.5331 72,68.5C 70.3005,67.5939 68.4672,67.2606 66.5,67.5C 66.5,69.1667 66.5,70.8333 66.5,72.5C 66.1667,72.5 65.8333,72.5 65.5,72.5C 65.8893,69.4467 65.2227,66.78 63.5,64.5C 59.0152,63.5787 54.3486,62.912 49.5,62.5C 46.8446,62.4404 44.5112,63.1071 42.5,64.5C 41.325,64.719 40.325,64.3857 39.5,63.5C 38.6258,61.2534 38.2924,58.9201 38.5,56.5C 39.0387,53.9584 40.372,51.7918 42.5,50C 46.5276,48.4784 50.1943,46.3118 53.5,43.5 Z"/></g>
<g><path style="opacity:1" fill="#37271b" d="M 96.5,74.5 C 94.079,74.1218 91.7457,73.4552 89.5,72.5C 87.0521,71.5269 84.3854,71.1936 81.5,71.5C 84.4766,71.0984 87.1433,70.0984 89.5,68.5C 91.1368,69.2178 92.8034,69.3845 94.5,69C 92.3156,66.6321 89.6489,65.9654 86.5,67C 87.056,67.3826 87.3893,67.8826 87.5,68.5C 83.8452,67.6481 80.1786,67.1481 76.5,67C 75.5769,69.0408 75.2436,71.2075 75.5,73.5C 77.2915,73.634 78.9582,73.3007 80.5,72.5C 80.5858,73.4959 80.2524,74.3292 79.5,75C 77.8659,75.4935 76.1992,75.6602 74.5,75.5C 74.5,71.8333 74.5,68.1667 74.5,64.5C 81.175,64.3337 87.8417,64.5004 94.5,65C 98.3796,67.7731 99.0463,70.9398 96.5,74.5 Z"/></g>
<g><path style="opacity:1" fill="#594c3e" d="M 38.5,56.5 C 38.2924,58.9201 38.6258,61.2534 39.5,63.5C 40.325,64.3857 41.325,64.719 42.5,64.5C 41.3146,65.8566 40.3146,67.3566 39.5,69C 40.0707,70.5991 41.0707,71.7658 42.5,72.5C 40.5,72.5 38.5,72.5 36.5,72.5C 36.5,74.8333 36.5,77.1667 36.5,79.5C 35.6311,77.016 34.9644,74.3493 34.5,71.5C 36.3512,67.0756 37.3512,62.4089 37.5,57.5C 37.5,56.8333 37.8333,56.5 38.5,56.5 Z"/></g>
<g><path style="opacity:1" fill="#3d3024" d="M 63.5,64.5 C 57.7365,64.6189 52.0698,65.4523 46.5,67C 44.0728,68.5545 44.0728,69.7211 46.5,70.5C 45.8166,72.1765 44.4832,72.8432 42.5,72.5C 41.0707,71.7658 40.0707,70.5991 39.5,69C 40.3146,67.3566 41.3146,65.8566 42.5,64.5C 44.5112,63.1071 46.8446,62.4404 49.5,62.5C 54.3486,62.912 59.0152,63.5787 63.5,64.5 Z"/></g>
<g><path style="opacity:1" fill="#1a120d" d="M 63.5,64.5 C 65.2227,66.78 65.8893,69.4467 65.5,72.5C 65.5,72.8333 65.5,73.1667 65.5,73.5C 64.7354,73.9234 63.9021,74.2568 63,74.5C 59.3724,72.9124 55.8724,71.2457 52.5,69.5C 50.4523,69.6718 48.4523,70.0051 46.5,70.5C 44.0728,69.7211 44.0728,68.5545 46.5,67C 52.0698,65.4523 57.7365,64.6189 63.5,64.5 Z"/></g>
<g><path style="opacity:1" fill="#716053" d="M 89.5,68.5 C 88.8333,68.5 88.1667,68.5 87.5,68.5C 87.3893,67.8826 87.056,67.3826 86.5,67C 89.6489,65.9654 92.3156,66.6321 94.5,69C 92.8034,69.3845 91.1368,69.2178 89.5,68.5 Z"/></g>
<g><path style="opacity:1" fill="#160f0a" d="M 87.5,68.5 C 88.1667,68.5 88.8333,68.5 89.5,68.5C 87.1433,70.0984 84.4766,71.0984 81.5,71.5C 81.5,72.1667 81.1667,72.5 80.5,72.5C 78.9582,73.3007 77.2915,73.634 75.5,73.5C 75.2436,71.2075 75.5769,69.0408 76.5,67C 80.1786,67.1481 83.8452,67.6481 87.5,68.5 Z"/></g>
<g><path style="opacity:1" fill="#0f0b06" d="M 120.5,37.5 C 121.468,39.6074 121.802,41.9407 121.5,44.5C 122.833,44.5 124.167,44.5 125.5,44.5C 124.021,46.6902 122.688,49.0235 121.5,51.5C 122.736,52.3567 124.069,53.0234 125.5,53.5C 127.264,50.7852 128.264,47.7852 128.5,44.5C 129.629,46.6282 129.796,48.9615 129,51.5C 127.858,53.6787 127.025,56.0121 126.5,58.5C 127.101,60.7247 127.434,62.8914 127.5,65C 125.741,66.008 124.574,67.508 124,69.5C 123.667,69.1667 123.333,68.8333 123,68.5C 121.89,70.0368 120.39,70.7035 118.5,70.5C 118.335,74.1817 118.501,77.8484 119,81.5C 119.333,80.8333 119.667,80.1667 120,79.5C 120.667,82.1667 120.667,84.8333 120,87.5C 119.014,86.8288 117.847,86.8288 116.5,87.5C 117.758,83.8004 117.758,80.1337 116.5,76.5C 115.766,75.2921 115.433,73.9587 115.5,72.5C 113.486,72.6085 111.82,71.9418 110.5,70.5C 111.031,68.4559 112.198,66.7893 114,65.5C 114.667,63.8333 114.667,62.1667 114,60.5C 110.458,56.3012 107.791,51.6346 106,46.5C 103.619,47.435 101.119,47.7683 98.5,47.5C 96.5659,46.8897 94.8993,45.8897 93.5,44.5C 93.0472,43.5416 92.3805,42.7083 91.5,42C 95.819,41.9241 100.152,42.0907 104.5,42.5C 105.794,41.7101 106.961,40.7101 108,39.5C 109.105,42.417 110.105,45.417 111,48.5C 113.87,50.0746 116.037,49.4079 117.5,46.5C 116.21,42.5182 114.544,38.6849 112.5,35C 113.01,33.1739 113.844,33.0072 115,34.5C 115.473,36.779 116.473,38.779 118,40.5C 119.417,39.9221 120.25,38.9221 120.5,37.5 Z"/></g>
<g><path style="opacity:1" fill="#322f22" d="M 125.5,44.5 C 126.5,44.5 127.5,44.5 128.5,44.5C 128.264,47.7852 127.264,50.7852 125.5,53.5C 124.069,53.0234 122.736,52.3567 121.5,51.5C 122.688,49.0235 124.021,46.6902 125.5,44.5 Z"/></g>
<g><path style="opacity:1" fill="#766050" d="M 65.5,73.5 C 66.8771,80.0183 64.8771,85.1849 59.5,89C 61.0581,89.21 62.3915,89.71 63.5,90.5C 61.0504,90.298 58.717,90.6314 56.5,91.5C 58.0665,88.7173 59.8999,86.0507 62,83.5C 62.8184,80.7728 62.6517,78.1062 61.5,75.5C 60.8933,75.6236 60.56,75.9569 60.5,76.5C 57.9272,77.5552 55.2605,77.7218 52.5,77C 54.087,76.1376 55.7536,75.4709 57.5,75C 53.5138,74.5012 49.5138,74.3345 45.5,74.5C 44.5,73.8333 43.5,73.1667 42.5,72.5C 44.4832,72.8432 45.8166,72.1765 46.5,70.5C 48.4523,70.0051 50.4523,69.6718 52.5,69.5C 55.8724,71.2457 59.3724,72.9124 63,74.5C 63.9021,74.2568 64.7354,73.9234 65.5,73.5 Z"/></g>
<g><path style="opacity:1" fill="#a5927c" d="M 42.5,72.5 C 43.5,73.1667 44.5,73.8333 45.5,74.5C 49.5138,74.3345 53.5138,74.5012 57.5,75C 55.7536,75.4709 54.087,76.1376 52.5,77C 55.2605,77.7218 57.9272,77.5552 60.5,76.5C 60.9382,76.4346 61.2716,76.6012 61.5,77C 58.7906,79.6752 56.1239,82.3419 53.5,85C 51.524,85.1878 49.524,85.0212 47.5,84.5C 45.9704,84.6399 44.9704,85.3065 44.5,86.5C 40.574,85.5722 37.9073,83.2389 36.5,79.5C 36.5,77.1667 36.5,74.8333 36.5,72.5C 38.5,72.5 40.5,72.5 42.5,72.5 Z"/></g>
<g><path style="opacity:1" fill="#c1b79f" d="M 45.5,74.5 C 46.3149,75.8366 47.4815,76.8366 49,77.5C 49.4935,79.1341 49.6602,80.8008 49.5,82.5C 46.0703,82.8935 42.9036,82.2268 40,80.5C 39.5015,76.4944 41.3348,74.4944 45.5,74.5 Z"/></g>
<g><path style="opacity:1" fill="#b29d84" d="M 97.5,84.5 C 96.853,86.1405 95.853,87.4739 94.5,88.5C 93.0222,88.238 91.6888,88.5713 90.5,89.5C 91.6808,91.198 91.6808,92.8647 90.5,94.5C 87.6561,88.3196 83.6561,82.9863 78.5,78.5C 78.6236,77.8933 78.9569,77.56 79.5,77.5C 80.391,78.1098 81.391,78.4431 82.5,78.5C 82.7352,79.0967 83.2352,79.4301 84,79.5C 90.454,77.681 96.7873,75.681 103,73.5C 104.5,73.6667 105.333,74.5 105.5,76C 103.467,78.5244 102.134,81.3577 101.5,84.5C 100.167,84.5 98.8333,84.5 97.5,84.5 Z"/></g>
<g><path style="opacity:1" fill="#a98a75" d="M 77.5,76.5 C 78.4916,76.3284 79.1583,76.6618 79.5,77.5C 78.9569,77.56 78.6236,77.8933 78.5,78.5C 83.6561,82.9863 87.6561,88.3196 90.5,94.5C 91.6808,92.8647 91.6808,91.198 90.5,89.5C 91.6888,88.5713 93.0222,88.238 94.5,88.5C 92.9304,90.8511 92.0971,93.5177 92,96.5C 90.8545,97.6843 89.6879,97.6843 88.5,96.5C 86.9582,95.6993 85.2915,95.366 83.5,95.5C 82.5,94.1667 81.5,92.8333 80.5,91.5C 80.1667,90.8333 79.8333,90.1667 79.5,89.5C 77.9376,85.3431 77.271,81.0097 77.5,76.5 Z"/></g>
<g><path style="opacity:1" fill="#4d4036" d="M 30.5,81.5 C 33.1041,85.6314 34.4374,89.9647 34.5,94.5C 34.2528,95.7133 33.5862,96.38 32.5,96.5C 29.4224,90.1181 28.4224,83.4514 29.5,76.5C 30.4519,78.0453 30.7852,79.712 30.5,81.5 Z"/></g>
<g><path style="opacity:1" fill="#917866" d="M 77.5,76.5 C 77.271,81.0097 77.9376,85.3431 79.5,89.5C 74.807,91.3598 69.807,92.0265 64.5,91.5C 64.1667,91.5 63.8333,91.5 63.5,91.5C 63.5,91.1667 63.5,90.8333 63.5,90.5C 62.3915,89.71 61.0581,89.21 59.5,89C 64.8771,85.1849 66.8771,80.0183 65.5,73.5C 65.5,73.1667 65.5,72.8333 65.5,72.5C 65.8333,72.5 66.1667,72.5 66.5,72.5C 66.5,70.8333 66.5,69.1667 66.5,67.5C 68.4672,67.2606 70.3005,67.5939 72,68.5C 72.6949,72.5331 73.5283,76.5331 74.5,80.5C 75.0568,78.6684 76.0568,77.3351 77.5,76.5 Z"/></g>
<g><path style="opacity:1" fill="#cab499" d="M 66.5,72.5 C 67.404,71.791 67.7373,70.791 67.5,69.5C 68.8333,69.5 70.1667,69.5 71.5,69.5C 71.7582,76.4367 71.7582,83.27 71.5,90C 65.3991,91.9028 63.5658,90.0694 66,84.5C 66.4988,80.5138 66.6655,76.5138 66.5,72.5 Z"/></g>
<g><path style="opacity:1" fill="#c9bca1" d="M 97.5,84.5 C 95.5992,84.4332 93.7659,84.7665 92,85.5C 87.2321,83.2597 87.3988,81.4264 92.5,80C 94.8098,79.5034 97.1432,79.3367 99.5,79.5C 99.6085,81.5138 98.9418,83.1805 97.5,84.5 Z"/></g>
<g><path style="opacity:1" fill="#5e4b40" d="M 116.5,76.5 C 117.758,80.1337 117.758,83.8004 116.5,87.5C 115.669,91.4985 114.003,95.1651 111.5,98.5C 110.5,98.5 109.5,98.5 108.5,98.5C 108.5,97.5 108.5,96.5 108.5,95.5C 112.257,95.7136 112.924,94.7136 110.5,92.5C 110.977,91.5224 111.643,90.6891 112.5,90C 110.18,88.5124 110.013,86.6791 112,84.5C 113.156,85.9928 113.99,85.8261 114.5,84C 113.44,81.0739 114.107,78.5739 116.5,76.5 Z"/></g>
<g><path style="opacity:1" fill="#998370" d="M 60.5,76.5 C 60.56,75.9569 60.8933,75.6236 61.5,75.5C 62.6517,78.1062 62.8184,80.7728 62,83.5C 59.8999,86.0507 58.0665,88.7173 56.5,91.5C 53.9432,93.6087 52.7766,96.2754 53,99.5C 54.7433,97.6789 56.2433,95.6789 57.5,93.5C 57.8333,94.1667 58.1667,94.8333 58.5,95.5C 56.4742,98.5178 54.4742,101.518 52.5,104.5C 50.8008,104.66 49.1341,104.494 47.5,104C 45.8176,100.908 46.6509,98.7411 50,97.5C 50.49,96.2068 50.6567,94.8734 50.5,93.5C 47.3663,92.2876 45.3663,89.9543 44.5,86.5C 44.9704,85.3065 45.9704,84.6399 47.5,84.5C 49.524,85.0212 51.524,85.1878 53.5,85C 56.1239,82.3419 58.7906,79.6752 61.5,77C 61.2716,76.6012 60.9382,76.4346 60.5,76.5 Z"/></g>
<g><path style="opacity:1" fill="#3a2c22" d="M 110.5,70.5 C 111.82,71.9418 113.486,72.6085 115.5,72.5C 115.433,73.9587 115.766,75.2921 116.5,76.5C 114.107,78.5739 113.44,81.0739 114.5,84C 113.99,85.8261 113.156,85.9928 112,84.5C 110.013,86.6791 110.18,88.5124 112.5,90C 111.643,90.6891 110.977,91.5224 110.5,92.5C 112.924,94.7136 112.257,95.7136 108.5,95.5C 108.5,96.5 108.5,97.5 108.5,98.5C 109.5,98.5 110.5,98.5 111.5,98.5C 109.833,99.1667 108.167,99.8333 106.5,100.5C 105.143,101.59 104.143,102.924 103.5,104.5C 103.908,101.47 104.574,98.4696 105.5,95.5C 105.333,94.1667 105.167,92.8333 105,91.5C 104.329,90.7476 103.496,90.4142 102.5,90.5C 103.11,89.609 103.443,88.609 103.5,87.5C 104.612,85.4006 105.279,83.0673 105.5,80.5C 106.15,80.1961 106.817,79.8627 107.5,79.5C 108.255,76.3484 109.255,73.3484 110.5,70.5 Z"/></g>
<g><path style="opacity:1" fill="#524135" d="M 79.5,89.5 C 79.8333,90.1667 80.1667,90.8333 80.5,91.5C 75.0671,92.8021 69.7337,92.8021 64.5,91.5C 69.807,92.0265 74.807,91.3598 79.5,89.5 Z"/></g>
<g><path style="opacity:1" fill="#2a201a" d="M 37.5,57.5 C 37.3512,62.4089 36.3512,67.0756 34.5,71.5C 34.9644,74.3493 35.6311,77.016 36.5,79.5C 36.5,80.8333 36.5,82.1667 36.5,83.5C 37.8089,86.7777 39.6422,89.7777 42,92.5C 42.1705,97.8642 42.6705,103.198 43.5,108.5C 44.5195,109.687 45.6861,110.687 47,111.5C 47.3457,114.576 48.0124,117.576 49,120.5C 49.7083,121.381 50.5416,122.047 51.5,122.5C 52.2679,123.263 52.7679,124.263 53,125.5C 54.3024,126.085 55.469,126.751 56.5,127.5C 59.1905,129.666 62.1905,129.999 65.5,128.5C 66.3081,128.808 66.9747,129.308 67.5,130C 72.1548,130.499 76.8215,130.666 81.5,130.5C 72.6134,131.893 63.6134,131.726 54.5,130C 52.0243,128.691 50.0243,126.858 48.5,124.5C 47.1667,120.833 45.8333,117.167 44.5,113.5C 42.9974,112.948 41.3307,112.948 39.5,113.5C 39.7709,111.62 39.1042,110.287 37.5,109.5C 36.8379,105.534 36.5045,101.534 36.5,97.5C 34.901,97.7678 33.5676,97.4345 32.5,96.5C 33.5862,96.38 34.2528,95.7133 34.5,94.5C 34.4374,89.9647 33.1041,85.6314 30.5,81.5C 31.4822,82.1408 32.4822,82.8075 33.5,83.5C 33.8333,82.6667 34.1667,81.8333 34.5,81C 33.9848,77.9522 32.9848,75.1188 31.5,72.5C 32.9371,70.4229 33.6038,68.0895 33.5,65.5C 34.262,62.5471 35.5953,59.8804 37.5,57.5 Z"/></g>
<g><path style="opacity:1" fill="#6b584c" d="M 105.5,80.5 C 105.279,83.0673 104.612,85.4006 103.5,87.5C 96.2657,92.9052 93.2657,100.239 94.5,109.5C 91.2157,111.186 88.549,110.52 86.5,107.5C 88.7638,108.219 91.0971,108.552 93.5,108.5C 93.506,103.785 94.006,99.118 95,94.5C 98.3744,89.6413 101.874,84.9746 105.5,80.5 Z"/></g>
<g><path style="opacity:1" fill="#7c6656" d="M 36.5,79.5 C 37.9073,83.2389 40.574,85.5722 44.5,86.5C 45.3663,89.9543 47.3663,92.2876 50.5,93.5C 50.6567,94.8734 50.49,96.2068 50,97.5C 46.6509,98.7411 45.8176,100.908 47.5,104C 49.1341,104.494 50.8008,104.66 52.5,104.5C 50.4402,105.811 48.2735,105.811 46,104.5C 45.3159,101.62 45.4826,98.7866 46.5,96C 46.101,94.2725 45.4343,92.7725 44.5,91.5C 41.5,89.1667 38.8333,86.5 36.5,83.5C 36.5,82.1667 36.5,80.8333 36.5,79.5 Z"/></g>
<g><path style="opacity:1" fill="#5c4e3e" d="M 80.5,91.5 C 81.5,92.8333 82.5,94.1667 83.5,95.5C 85.1128,96.8381 85.6128,98.5048 85,100.5C 83.5945,97.5914 81.4278,95.5914 78.5,94.5C 79.5511,93.7777 80.2178,92.7777 80.5,91.5 Z"/></g>
<g><path style="opacity:1" fill="#16100d" d="M 63.5,91.5 C 63.8333,91.5 64.1667,91.5 64.5,91.5C 69.7337,92.8021 75.0671,92.8021 80.5,91.5C 80.2178,92.7777 79.5511,93.7777 78.5,94.5C 78.5,94.8333 78.5,95.1667 78.5,95.5C 74.8219,98.5928 70.8219,100.926 66.5,102.5C 64.7698,100.921 62.9364,99.2545 61,97.5C 59.872,95.6547 59.372,93.6547 59.5,91.5C 60.8333,91.5 62.1667,91.5 63.5,91.5 Z"/></g>
<g><path style="opacity:1" fill="#877262" d="M 107.5,67.5 C 107.945,72.1014 107.278,76.4347 105.5,80.5C 101.874,84.9746 98.3744,89.6413 95,94.5C 94.006,99.118 93.506,103.785 93.5,108.5C 91.0971,108.552 88.7638,108.219 86.5,107.5C 85.5,106.833 84.5,106.167 83.5,105.5C 83.5,105.167 83.5,104.833 83.5,104.5C 85.8724,105.723 88.3724,106.723 91,107.5C 90.7998,103.74 89.9665,100.074 88.5,96.5C 89.6879,97.6843 90.8545,97.6843 92,96.5C 92.0971,93.5177 92.9304,90.8511 94.5,88.5C 95.853,87.4739 96.853,86.1405 97.5,84.5C 98.8333,84.5 100.167,84.5 101.5,84.5C 102.134,81.3577 103.467,78.5244 105.5,76C 105.333,74.5 104.5,73.6667 103,73.5C 96.7873,75.681 90.454,77.681 84,79.5C 83.2352,79.4301 82.7352,79.0967 82.5,78.5C 83.2389,78.631 83.9056,78.4643 84.5,78C 83.3279,77.5814 82.3279,76.9147 81.5,76C 84.7423,75.7167 85.0756,74.8834 82.5,73.5C 84.7427,72.5258 87.076,72.1924 89.5,72.5C 91.7457,73.4552 94.079,74.1218 96.5,74.5C 100.354,72.4537 104.021,70.1203 107.5,67.5 Z"/></g>
<g><path style="opacity:1" fill="#5e5147" d="M 63.5,90.5 C 63.5,90.8333 63.5,91.1667 63.5,91.5C 62.1667,91.5 60.8333,91.5 59.5,91.5C 59.372,93.6547 59.872,95.6547 61,97.5C 62.9364,99.2545 64.7698,100.921 66.5,102.5C 63.6035,102.125 60.9368,102.625 58.5,104C 61.3647,104.183 64.0314,104.683 66.5,105.5C 61.1667,105.833 55.8333,106.167 50.5,106.5C 48.5,106.833 46.5,107.167 44.5,107.5C 44.5,102.167 44.5,96.8333 44.5,91.5C 45.4343,92.7725 46.101,94.2725 46.5,96C 45.4826,98.7866 45.3159,101.62 46,104.5C 48.2735,105.811 50.4402,105.811 52.5,104.5C 54.4742,101.518 56.4742,98.5178 58.5,95.5C 58.1667,94.8333 57.8333,94.1667 57.5,93.5C 56.2433,95.6789 54.7433,97.6789 53,99.5C 52.7766,96.2754 53.9432,93.6087 56.5,91.5C 58.717,90.6314 61.0504,90.298 63.5,90.5 Z"/></g>
<g><path style="opacity:1" fill="#5f544d" d="M 78.5,95.5 C 78.5,97.8333 78.5,100.167 78.5,102.5C 80.698,102.12 82.3646,102.787 83.5,104.5C 83.5,104.833 83.5,105.167 83.5,105.5C 82.5,105.5 81.5,105.5 80.5,105.5C 75.8052,104.195 71.1386,103.195 66.5,102.5C 70.8219,100.926 74.8219,98.5928 78.5,95.5 Z"/></g>
<g><path style="opacity:1" fill="#7b726c" d="M 66.5,102.5 C 71.1386,103.195 75.8052,104.195 80.5,105.5C 80.5,106.833 79.8333,107.5 78.5,107.5C 74.6995,105.857 70.6995,105.19 66.5,105.5C 64.0314,104.683 61.3647,104.183 58.5,104C 60.9368,102.625 63.6035,102.125 66.5,102.5 Z"/></g>
<g><path style="opacity:1" fill="#988877" d="M 78.5,94.5 C 81.4278,95.5914 83.5945,97.5914 85,100.5C 85.6128,98.5048 85.1128,96.8381 83.5,95.5C 85.2915,95.366 86.9582,95.6993 88.5,96.5C 89.9665,100.074 90.7998,103.74 91,107.5C 88.3724,106.723 85.8724,105.723 83.5,104.5C 82.3646,102.787 80.698,102.12 78.5,102.5C 78.5,100.167 78.5,97.8333 78.5,95.5C 78.5,95.1667 78.5,94.8333 78.5,94.5 Z"/></g>
<g><path style="opacity:1" fill="#271b17" d="M 66.5,105.5 C 70.6995,105.19 74.6995,105.857 78.5,107.5C 80.017,108.735 81.6837,108.735 83.5,107.5C 85.4041,108.257 85.7375,109.257 84.5,110.5C 81.0968,110.149 77.7635,109.482 74.5,108.5C 74.1667,108.5 73.8333,108.5 73.5,108.5C 68.6842,107.35 63.6842,107.184 58.5,108C 55.2321,109.15 51.8988,109.984 48.5,110.5C 48.5271,108.801 49.1938,107.467 50.5,106.5C 55.8333,106.167 61.1667,105.833 66.5,105.5 Z"/></g>
<g><path style="opacity:1" fill="#87716d" d="M 73.5,108.5 C 73.8333,108.5 74.1667,108.5 74.5,108.5C 74.5858,109.496 74.2524,110.329 73.5,111C 71.5273,111.495 69.5273,111.662 67.5,111.5C 65.5165,111.617 63.8498,110.95 62.5,109.5C 66.1073,108.511 69.774,108.177 73.5,108.5 Z"/></g>
<g><path style="opacity:1" fill="#453a35" d="M 103.5,87.5 C 103.443,88.609 103.11,89.609 102.5,90.5C 100.901,92.6038 99.068,94.6038 97,96.5C 96.5007,101.489 96.3341,106.489 96.5,111.5C 95.448,111.351 94.448,111.517 93.5,112C 92.1196,113.925 90.6196,115.759 89,117.5C 88.5034,119.81 88.3367,122.143 88.5,124.5C 86.6721,127.194 84.3387,129.194 81.5,130.5C 76.8215,130.666 72.1548,130.499 67.5,130C 66.9747,129.308 66.3081,128.808 65.5,128.5C 62.1905,129.999 59.1905,129.666 56.5,127.5C 58.1986,127.62 59.8653,127.954 61.5,128.5C 62.9495,127.72 64.4495,127.054 66,126.5C 71.9929,128.06 77.8263,127.726 83.5,125.5C 85.9819,123.497 86.9819,120.831 86.5,117.5C 87.0967,117.265 87.4301,116.765 87.5,116C 86.8758,113.915 85.8758,112.082 84.5,110.5C 85.7375,109.257 85.4041,108.257 83.5,107.5C 81.6837,108.735 80.017,108.735 78.5,107.5C 79.8333,107.5 80.5,106.833 80.5,105.5C 81.5,105.5 82.5,105.5 83.5,105.5C 84.5,106.167 85.5,106.833 86.5,107.5C 88.549,110.52 91.2157,111.186 94.5,109.5C 93.2657,100.239 96.2657,92.9052 103.5,87.5 Z"/></g>
<g><path style="opacity:1" fill="#302721" d="M 102.5,90.5 C 103.496,90.4142 104.329,90.7476 105,91.5C 105.167,92.8333 105.333,94.1667 105.5,95.5C 104.574,98.4696 103.908,101.47 103.5,104.5C 102.516,109.71 100.349,114.376 97,118.5C 91.9672,114.674 90.1338,116.007 91.5,122.5C 90.5,123.167 89.5,123.833 88.5,124.5C 88.3367,122.143 88.5034,119.81 89,117.5C 90.6196,115.759 92.1196,113.925 93.5,112C 94.448,111.517 95.448,111.351 96.5,111.5C 96.3341,106.489 96.5007,101.489 97,96.5C 99.068,94.6038 100.901,92.6038 102.5,90.5 Z"/></g>
<g><path style="opacity:1" fill="#5c483e" d="M 36.5,83.5 C 38.8333,86.5 41.5,89.1667 44.5,91.5C 44.5,96.8333 44.5,102.167 44.5,107.5C 46.5,107.167 48.5,106.833 50.5,106.5C 49.1938,107.467 48.5271,108.801 48.5,110.5C 51.8988,109.984 55.2321,109.15 58.5,108C 63.6842,107.184 68.6842,107.35 73.5,108.5C 69.774,108.177 66.1073,108.511 62.5,109.5C 63.8498,110.95 65.5165,111.617 67.5,111.5C 67.5,111.833 67.5,112.167 67.5,112.5C 65.5,112.5 63.5,112.5 61.5,112.5C 61.6399,114.124 60.9733,115.29 59.5,116C 59.7284,116.399 60.0618,116.565 60.5,116.5C 60.5,116.833 60.5,117.167 60.5,117.5C 58.7162,117.893 57.0495,118.559 55.5,119.5C 53.0274,119.088 51.6941,120.088 51.5,122.5C 50.5416,122.047 49.7083,121.381 49,120.5C 48.0124,117.576 47.3457,114.576 47,111.5C 45.6861,110.687 44.5195,109.687 43.5,108.5C 42.6705,103.198 42.1705,97.8642 42,92.5C 39.6422,89.7777 37.8089,86.7777 36.5,83.5 Z"/></g>
<g><path style="opacity:1" fill="#382922" d="M 67.5,112.5 C 68.5,112.5 69.5,112.5 70.5,112.5C 73.2178,114.423 72.8845,115.756 69.5,116.5C 66.5,116.5 63.5,116.5 60.5,116.5C 60.0618,116.565 59.7284,116.399 59.5,116C 60.9733,115.29 61.6399,114.124 61.5,112.5C 63.5,112.5 65.5,112.5 67.5,112.5 Z"/></g>
<g><path style="opacity:1" fill="#7b655b" d="M 74.5,108.5 C 77.7635,109.482 81.0968,110.149 84.5,110.5C 85.8758,112.082 86.8758,113.915 87.5,116C 87.4301,116.765 87.0967,117.265 86.5,117.5C 81.5815,118.628 77.9148,117.128 75.5,113C 73.8659,112.506 72.1992,112.34 70.5,112.5C 69.5,112.5 68.5,112.5 67.5,112.5C 67.5,112.167 67.5,111.833 67.5,111.5C 69.5273,111.662 71.5273,111.495 73.5,111C 74.2524,110.329 74.5858,109.496 74.5,108.5 Z"/></g>
<g><path style="opacity:1" fill="#22211b" d="M 106.5,100.5 C 105.376,106.78 103.376,112.78 100.5,118.5C 103.977,119.167 107.311,119.834 110.5,120.5C 108.801,120.34 107.134,120.506 105.5,121C 106.357,121.689 107.023,122.522 107.5,123.5C 102.915,124.905 102.582,126.572 106.5,128.5C 103.833,128.5 101.167,128.5 98.5,128.5C 98.5,130.833 98.5,133.167 98.5,135.5C 97.6981,134.048 97.1981,132.382 97,130.5C 96.6174,131.056 96.1174,131.389 95.5,131.5C 96.5247,127.746 97.358,124.079 98,120.5C 96.8831,120.335 95.7164,120.002 94.5,119.5C 93.7124,120.77 92.7124,121.77 91.5,122.5C 90.1338,116.007 91.9672,114.674 97,118.5C 100.349,114.376 102.516,109.71 103.5,104.5C 104.143,102.924 105.143,101.59 106.5,100.5 Z"/></g>
<g><path style="opacity:1" fill="#aa9784" d="M 60.5,116.5 C 63.5,116.5 66.5,116.5 69.5,116.5C 69.5,116.833 69.5,117.167 69.5,117.5C 67.1667,117.5 64.8333,117.5 62.5,117.5C 62.9345,121.158 65.1012,122.825 69,122.5C 72.2634,123.068 73.7634,121.734 73.5,118.5C 74.391,119.11 75.391,119.443 76.5,119.5C 77.6843,120.688 77.6843,121.855 76.5,123C 71.1398,124.84 65.8065,124.84 60.5,123C 59.2475,121.172 59.2475,119.339 60.5,117.5C 60.5,117.167 60.5,116.833 60.5,116.5 Z"/></g>
<g><path style="opacity:1" fill="#5f4a3f" d="M 70.5,112.5 C 72.1992,112.34 73.8659,112.506 75.5,113C 77.9148,117.128 81.5815,118.628 86.5,117.5C 86.9819,120.831 85.9819,123.497 83.5,125.5C 83.5323,123.381 82.5323,122.048 80.5,121.5C 79.3951,120.4 78.0618,119.733 76.5,119.5C 75.391,119.443 74.391,119.11 73.5,118.5C 72.2921,117.766 70.9587,117.433 69.5,117.5C 69.5,117.167 69.5,116.833 69.5,116.5C 72.8845,115.756 73.2178,114.423 70.5,112.5 Z"/></g>
<g><path style="opacity:1" fill="#cabaa0" d="M 69.5,117.5 C 70.9587,117.433 72.2921,117.766 73.5,118.5C 73.7634,121.734 72.2634,123.068 69,122.5C 65.1012,122.825 62.9345,121.158 62.5,117.5C 64.8333,117.5 67.1667,117.5 69.5,117.5 Z"/></g>
<g><path style="opacity:1" fill="#907d6e" d="M 60.5,117.5 C 59.2475,119.339 59.2475,121.172 60.5,123C 65.8065,124.84 71.1398,124.84 76.5,123C 77.6843,121.855 77.6843,120.688 76.5,119.5C 78.0618,119.733 79.3951,120.4 80.5,121.5C 80.4894,123.017 79.8228,124.184 78.5,125C 70.8106,125.647 63.1439,125.48 55.5,124.5C 55.5,122.833 55.5,121.167 55.5,119.5C 57.0495,118.559 58.7162,117.893 60.5,117.5 Z"/></g>
<g><path style="opacity:1" fill="#7b8174" d="M 112.5,121.5 C 114.38,121.229 115.713,121.896 116.5,123.5C 114.352,123.389 114.019,124.056 115.5,125.5C 113.712,126.283 112.712,127.616 112.5,129.5C 108.005,128.762 107.005,126.762 109.5,123.5C 109.291,122.914 108.957,122.414 108.5,122C 109.793,121.51 111.127,121.343 112.5,121.5 Z"/></g>
<g><path style="opacity:1" fill="#5a6254" d="M 8.5,130.5 C 5.48237,130.704 2.48237,131.037 -0.5,131.5C -0.5,131.167 -0.5,130.833 -0.5,130.5C 2.63771,129.319 5.63771,129.319 8.5,130.5 Z"/></g>
<g><path style="opacity:1" fill="#17100d" d="M 37.5,109.5 C 39.1042,110.287 39.7709,111.62 39.5,113.5C 41.3307,112.948 42.9974,112.948 44.5,113.5C 45.8333,117.167 47.1667,120.833 48.5,124.5C 50.0243,126.858 52.0243,128.691 54.5,130C 63.6134,131.726 72.6134,131.893 81.5,130.5C 84.3387,129.194 86.6721,127.194 88.5,124.5C 89.5,123.833 90.5,123.167 91.5,122.5C 92.7124,121.77 93.7124,120.77 94.5,119.5C 95.7164,120.002 96.8831,120.335 98,120.5C 97.358,124.079 96.5247,127.746 95.5,131.5C 91.7185,140.277 86.7185,148.277 80.5,155.5C 78.1667,155.5 75.8333,155.5 73.5,155.5C 77.5959,153.66 79.4293,150.327 79,145.5C 82.2012,142.429 84.3679,138.762 85.5,134.5C 83.4588,134.854 81.6255,134.854 80,134.5C 79.4806,135.516 78.6473,136.182 77.5,136.5C 68.4667,134.985 59.4667,133.318 50.5,131.5C 49.9919,134.176 49.8253,136.843 50,139.5C 52.0504,143.077 54.3837,146.411 57,149.5C 61.2938,151.248 65.7938,151.915 70.5,151.5C 70.4326,152.959 70.7659,154.292 71.5,155.5C 65.5,155.5 59.5,155.5 53.5,155.5C 51.6758,149.177 48.3425,143.844 43.5,139.5C 42.6922,137.577 42.1922,135.577 42,133.5C 40.9887,132.663 39.8221,132.33 38.5,132.5C 40.2994,129.495 40.9661,126.162 40.5,122.5C 41.675,122.719 42.675,122.386 43.5,121.5C 40.1471,118.155 38.1471,114.155 37.5,109.5 Z"/></g>
<g><path style="opacity:1" fill="#695b54" d="M 55.5,119.5 C 55.5,121.167 55.5,122.833 55.5,124.5C 63.1439,125.48 70.8106,125.647 78.5,125C 79.8228,124.184 80.4894,123.017 80.5,121.5C 82.5323,122.048 83.5323,123.381 83.5,125.5C 77.8263,127.726 71.9929,128.06 66,126.5C 64.4495,127.054 62.9495,127.72 61.5,128.5C 59.8653,127.954 58.1986,127.62 56.5,127.5C 55.469,126.751 54.3024,126.085 53,125.5C 52.7679,124.263 52.2679,123.263 51.5,122.5C 51.6941,120.088 53.0274,119.088 55.5,119.5 Z"/></g>
<g><path style="opacity:1" fill="#100a08" d="M 73.5,155.5 C 72.8333,155.5 72.1667,155.5 71.5,155.5C 70.7659,154.292 70.4326,152.959 70.5,151.5C 65.7938,151.915 61.2938,151.248 57,149.5C 54.3837,146.411 52.0504,143.077 50,139.5C 49.8253,136.843 49.9919,134.176 50.5,131.5C 59.4667,133.318 68.4667,134.985 77.5,136.5C 78.6473,136.182 79.4806,135.516 80,134.5C 81.6255,134.854 83.4588,134.854 85.5,134.5C 84.3679,138.762 82.2012,142.429 79,145.5C 79.4293,150.327 77.5959,153.66 73.5,155.5 Z"/></g>
<g><path style="opacity:1" fill="#0c0a05" d="M 106.5,128.5 C 107.492,128.328 108.158,128.662 108.5,129.5C 109.476,130.815 110.476,132.148 111.5,133.5C 109.458,134.503 109.125,135.837 110.5,137.5C 108.384,136.71 106.051,136.71 103.5,137.5C 101.486,137.608 99.8195,136.942 98.5,135.5C 98.5,133.167 98.5,130.833 98.5,128.5C 101.167,128.5 103.833,128.5 106.5,128.5 Z"/></g>
<g><path style="opacity:1" fill="#b2baa6" d="M 116.5,123.5 C 121.763,123.131 126.096,124.964 129.5,129C 134.772,129.476 139.439,131.309 143.5,134.5C 143.5,141.5 143.5,148.5 143.5,155.5C 142.5,155.5 141.5,155.5 140.5,155.5C 140.19,151.732 139.357,148.065 138,144.5C 135.629,142.362 133.796,139.862 132.5,137C 130.153,136.154 128.32,134.654 127,132.5C 126.536,133.094 126.369,133.761 126.5,134.5C 123.929,130.482 122.929,131.149 123.5,136.5C 122.837,134.958 122.17,133.291 121.5,131.5C 120.831,133.631 120.165,135.631 119.5,137.5C 117.196,134.859 114.862,132.192 112.5,129.5C 112.712,127.616 113.712,126.283 115.5,125.5C 114.019,124.056 114.352,123.389 116.5,123.5 Z"/></g>
<g><path style="opacity:1" fill="#969c8a" d="M 123.5,136.5 C 125.141,142.647 126.474,148.98 127.5,155.5C 125.5,155.5 123.5,155.5 121.5,155.5C 121.964,149.268 121.297,143.268 119.5,137.5C 120.165,135.631 120.831,133.631 121.5,131.5C 122.17,133.291 122.837,134.958 123.5,136.5 Z"/></g>
<g><path style="opacity:1" fill="#7d8367" d="M -0.5,135.5 C 7.07058,136.452 13.4039,139.786 18.5,145.5C 18.5654,145.938 18.3988,146.272 18,146.5C 12.7169,141.775 6.55024,139.108 -0.5,138.5C -0.5,137.5 -0.5,136.5 -0.5,135.5 Z"/></g>
<g><path style="opacity:1" fill="#231c12" d="M 108.5,129.5 C 112.296,130.8 114.463,133.467 115,137.5C 118.088,139.776 119.421,142.776 119,146.5C 117.5,144.167 116,141.833 114.5,139.5C 113.833,138.167 113.167,138.167 112.5,139.5C 115.609,144.492 117.942,149.825 119.5,155.5C 118.167,155.5 116.833,155.5 115.5,155.5C 115.169,150.157 113.836,145.157 111.5,140.5C 110.041,140.433 108.708,140.766 107.5,141.5C 106.738,139.738 105.404,138.738 103.5,138.5C 103.5,138.167 103.5,137.833 103.5,137.5C 106.051,136.71 108.384,136.71 110.5,137.5C 109.125,135.837 109.458,134.503 111.5,133.5C 110.476,132.148 109.476,130.815 108.5,129.5 Z"/></g>
<g><path style="opacity:1" fill="#bdc7b6" d="M 8.5,130.5 C 11.6016,132.227 14.6016,134.227 17.5,136.5C 18.1667,137.5 18.8333,138.5 19.5,139.5C 20.6805,141.693 21.6805,144.026 22.5,146.5C 22.1667,146.833 21.8333,147.167 21.5,147.5C 20.4822,146.807 19.4822,146.141 18.5,145.5C 13.4039,139.786 7.07058,136.452 -0.5,135.5C -0.5,134.167 -0.5,132.833 -0.5,131.5C 2.48237,131.037 5.48237,130.704 8.5,130.5 Z"/></g>
<g><path style="opacity:1" fill="#402e24" d="M 98.5,135.5 C 99.8195,136.942 101.486,137.608 103.5,137.5C 103.5,137.833 103.5,138.167 103.5,138.5C 102.167,138.5 100.833,138.5 99.5,138.5C 99.6641,141.187 99.4974,143.854 99,146.5C 98.0105,149.626 96.8438,152.626 95.5,155.5C 94.5,155.5 93.5,155.5 92.5,155.5C 93.9777,141.598 92.3111,141.598 87.5,155.5C 85.1667,155.5 82.8333,155.5 80.5,155.5C 86.7185,148.277 91.7185,140.277 95.5,131.5C 96.1174,131.389 96.6174,131.056 97,130.5C 97.1981,132.382 97.6981,134.048 98.5,135.5 Z"/></g>
<g><path style="opacity:1" fill="#725c4b" d="M 39.5,148.5 C 36.9173,147.015 35.584,144.682 35.5,141.5C 33.3146,141.704 31.3146,142.37 29.5,143.5C 29.8333,142.833 30.1667,142.167 30.5,141.5C 31.8333,140.5 33.1667,139.5 34.5,138.5C 35.4959,138.586 36.3292,138.252 37,137.5C 38.9039,140.923 39.7372,144.59 39.5,148.5 Z"/></g>
<g><path style="opacity:1" fill="#4f4e3d" d="M 110.5,120.5 C 111.492,120.328 112.158,120.662 112.5,121.5C 111.127,121.343 109.793,121.51 108.5,122C 108.957,122.414 109.291,122.914 109.5,123.5C 107.005,126.762 108.005,128.762 112.5,129.5C 114.862,132.192 117.196,134.859 119.5,137.5C 121.297,143.268 121.964,149.268 121.5,155.5C 120.833,155.5 120.167,155.5 119.5,155.5C 117.942,149.825 115.609,144.492 112.5,139.5C 113.167,138.167 113.833,138.167 114.5,139.5C 116,141.833 117.5,144.167 119,146.5C 119.421,142.776 118.088,139.776 115,137.5C 114.463,133.467 112.296,130.8 108.5,129.5C 108.158,128.662 107.492,128.328 106.5,128.5C 102.582,126.572 102.915,124.905 107.5,123.5C 107.023,122.522 106.357,121.689 105.5,121C 107.134,120.506 108.801,120.34 110.5,120.5 Z"/></g>
<g><path style="opacity:1" fill="#c8d0c0" d="M 126.5,134.5 C 127.981,138.319 128.814,142.319 129,146.5C 131.251,149.017 132.084,152.017 131.5,155.5C 130.167,155.5 128.833,155.5 127.5,155.5C 126.474,148.98 125.141,142.647 123.5,136.5C 122.929,131.149 123.929,130.482 126.5,134.5 Z"/></g>
<g><path style="opacity:1" fill="#1f1d17" d="M 17.5,136.5 C 20.3029,137.067 22.6363,138.4 24.5,140.5C 26.396,141.466 28.396,141.799 30.5,141.5C 30.1667,142.167 29.8333,142.833 29.5,143.5C 27.8333,144.167 26.1667,144.833 24.5,145.5C 23.5569,142.891 21.8903,140.891 19.5,139.5C 18.8333,138.5 18.1667,137.5 17.5,136.5 Z"/></g>
<g><path style="opacity:1" fill="#a1a98b" d="M 140.5,155.5 C 137.5,155.5 134.5,155.5 131.5,155.5C 132.084,152.017 131.251,149.017 129,146.5C 128.814,142.319 127.981,138.319 126.5,134.5C 126.369,133.761 126.536,133.094 127,132.5C 128.32,134.654 130.153,136.154 132.5,137C 133.796,139.862 135.629,142.362 138,144.5C 139.357,148.065 140.19,151.732 140.5,155.5 Z"/></g>
<g><path style="opacity:1" fill="#755a47" d="M 103.5,138.5 C 105.404,138.738 106.738,139.738 107.5,141.5C 109.515,145.906 110.515,150.572 110.5,155.5C 105.5,155.5 100.5,155.5 95.5,155.5C 96.8438,152.626 98.0105,149.626 99,146.5C 99.4974,143.854 99.6641,141.187 99.5,138.5C 100.833,138.5 102.167,138.5 103.5,138.5 Z"/></g>
<g><path style="opacity:1" fill="#3d3019" d="M 115.5,155.5 C 113.833,155.5 112.167,155.5 110.5,155.5C 110.515,150.572 109.515,145.906 107.5,141.5C 108.708,140.766 110.041,140.433 111.5,140.5C 113.836,145.157 115.169,150.157 115.5,155.5 Z"/></g>
<g><path style="opacity:1" fill="#89745a" d="M 39.5,148.5 C 40.4694,151.113 41.8027,153.447 43.5,155.5C 40.8333,155.5 38.1667,155.5 35.5,155.5C 35.1193,154.069 34.1193,153.236 32.5,153C 28.7789,152.322 25.1122,152.489 21.5,153.5C 22.3149,152.163 23.4815,151.163 25,150.5C 25.6397,148.735 25.4731,147.068 24.5,145.5C 26.1667,144.833 27.8333,144.167 29.5,143.5C 31.3146,142.37 33.3146,141.704 35.5,141.5C 35.584,144.682 36.9173,147.015 39.5,148.5 Z"/></g>
<g><path style="opacity:1" fill="#2e1b14" d="M 38.5,133.5 C 38.5,133.167 38.5,132.833 38.5,132.5C 39.8221,132.33 40.9887,132.663 42,133.5C 42.1922,135.577 42.6922,137.577 43.5,139.5C 48.3425,143.844 51.6758,149.177 53.5,155.5C 51.8333,155.5 50.1667,155.5 48.5,155.5C 45.515,153.483 43.1816,150.816 41.5,147.5C 40.8929,142.612 39.8929,137.946 38.5,133.5 Z"/></g>
<g><path style="opacity:1" fill="#b1b9a1" d="M -0.5,151.5 C -0.5,151.167 -0.5,150.833 -0.5,150.5C 4.33989,149.756 8.00656,151.422 10.5,155.5C 8.16667,155.5 5.83333,155.5 3.5,155.5C 3.04319,153.227 1.70986,151.894 -0.5,151.5 Z"/></g>
<g><path style="opacity:1" fill="#acb298" d="M -0.5,138.5 C 6.55024,139.108 12.7169,141.775 18,146.5C 18.3988,146.272 18.5654,145.938 18.5,145.5C 19.4822,146.141 20.4822,146.807 21.5,147.5C 21.8333,147.167 22.1667,146.833 22.5,146.5C 21.6805,144.026 20.6805,141.693 19.5,139.5C 21.8903,140.891 23.5569,142.891 24.5,145.5C 25.4731,147.068 25.6397,148.735 25,150.5C 23.4815,151.163 22.3149,152.163 21.5,153.5C 20.6618,153.842 20.3284,154.508 20.5,155.5C 18.1667,155.5 15.8333,155.5 13.5,155.5C 12.3747,153.871 11.0414,152.371 9.5,151C 9.83333,150.833 10.1667,150.667 10.5,150.5C 12.7015,152.268 15.0348,153.435 17.5,154C 14.3123,150.919 10.979,148.086 7.5,145.5C 5.05034,143.713 2.38367,142.38 -0.5,141.5C -0.5,140.5 -0.5,139.5 -0.5,138.5 Z"/></g>
<g><path style="opacity:1" fill="#5b4436" d="M 38.5,133.5 C 39.8929,137.946 40.8929,142.612 41.5,147.5C 43.1816,150.816 45.515,153.483 48.5,155.5C 46.8333,155.5 45.1667,155.5 43.5,155.5C 41.8027,153.447 40.4694,151.113 39.5,148.5C 39.7372,144.59 38.9039,140.923 37,137.5C 36.3292,138.252 35.4959,138.586 34.5,138.5C 35.604,136.611 36.9373,134.945 38.5,133.5 Z"/></g>
<g><path style="opacity:1" fill="#c6cfba" d="M -0.5,141.5 C 2.38367,142.38 5.05034,143.713 7.5,145.5C 10.979,148.086 14.3123,150.919 17.5,154C 15.0348,153.435 12.7015,152.268 10.5,150.5C 10.1667,150.667 9.83333,150.833 9.5,151C 11.0414,152.371 12.3747,153.871 13.5,155.5C 12.5,155.5 11.5,155.5 10.5,155.5C 8.00656,151.422 4.33989,149.756 -0.5,150.5C -0.5,147.5 -0.5,144.5 -0.5,141.5 Z"/></g>
<g><path style="opacity:1" fill="#695446" d="M 92.5,155.5 C 90.8333,155.5 89.1667,155.5 87.5,155.5C 92.3111,141.598 93.9777,141.598 92.5,155.5 Z"/></g>
<g><path style="opacity:1" fill="#61664e" d="M -0.5,151.5 C 1.70986,151.894 3.04319,153.227 3.5,155.5C 2.16667,155.5 0.833333,155.5 -0.5,155.5C -0.5,154.167 -0.5,152.833 -0.5,151.5 Z"/></g>
<g><path style="opacity:1" fill="#5a4e23" d="M 35.5,155.5 C 30.5,155.5 25.5,155.5 20.5,155.5C 20.3284,154.508 20.6618,153.842 21.5,153.5C 25.1122,152.489 28.7789,152.322 32.5,153C 34.1193,153.236 35.1193,154.069 35.5,155.5 Z"/></g>
</svg>
